<?xml version="1.0" encoding="utf-8"?>
<!-- Generator: Adobe Illustrator 23.0.1, SVG Export Plug-In . SVG Version: 6.00 Build 0)  -->
<svg version="1.1" id="Capa_1" xmlns="http://www.w3.org/2000/svg" xmlns:xlink="http://www.w3.org/1999/xlink" x="0px"
     y="0px"
     viewBox="0 0 512 512" style="enable-background:new 0 0 512 512;" xml:space="preserve">
<style type="text/css">
	.st0{fill:#FFFFFF;}
</style>
    <g>
	<path class="st0" d="M295.6,34.9v81.5h81.5L295.6,34.9z"/>
        <path class="st0" d="M250.4,312.2c0-74.7,60.8-135.5,135.5-135.5v-30.1H265.4V26H39.6v451.8h346.4v-30.1
		C311.2,447.7,250.4,386.9,250.4,312.2z M99.8,116.4h120.5v30.1H99.8V116.4z M220.3,387.5H99.8v-30.1h120.5V387.5z M220.3,327.2
		H99.8v-30.1h120.5V327.2z M220.3,267H99.8v-30.1h120.5V267z M220.3,206.7H99.8v-30.1h120.5V206.7z"/>
        <path class="st0" d="M389.4,206.8c-60.9-2-110.8,48-108.9,108.8c1.8,55.2,46.6,100.1,101.9,101.9c60.9,2,110.8-48,108.9-108.9
		C489.5,253.4,444.6,208.6,389.4,206.8z M375.3,359.2l-40.8-40.8l21.3-21.3l19.5,19.5l49.6-49.6l21.3,21.3L375.3,359.2z"/>
</g>
</svg>
