<?xml version="1.0" encoding="utf-8"?>
<!-- Generator: Adobe Illustrator 23.0.1, SVG Export Plug-In . SVG Version: 6.00 Build 0)  -->
<svg version="1.1" id="Capa_1" xmlns="http://www.w3.org/2000/svg" xmlns:xlink="http://www.w3.org/1999/xlink" x="0px" y="0px"
	 viewBox="0 0 512 512" style="enable-background:new 0 0 512 512;" xml:space="preserve">
<style type="text/css">
	.st0{fill:#FFFFFF;}
</style>
<g>
	<g>
		<rect x="153.6" y="153.6" class="st0" width="204.8" height="204.8"/>
	</g>
</g>
<g>
	<g>
		<path class="st0" d="M486.4,281.6c15.4,0,25.6-10.2,25.6-25.6c0-12.8-10.2-25.6-25.6-25.6h-25.6v-51.2h25.6
			c15.4,0,25.6-10.2,25.6-25.6c0-12.8-10.2-25.6-25.6-25.6h-25.6v-25.6c0-28.2-23-51.2-51.2-51.2H384V25.6C384,12.8,373.8,0,358.4,0
			c-12.8,0-25.6,10.2-25.6,25.6v25.6h-51.2V25.6C281.6,12.8,271.4,0,256,0s-25.6,10.2-25.6,25.6v25.6h-51.2V25.6
			C179.2,12.8,169,0,153.6,0S128,10.2,128,25.6v25.6h-25.6c-28.2,0-51.2,23-51.2,51.2V128H25.6C10.2,128,0,138.2,0,153.6
			c0,12.8,10.2,25.6,25.6,25.6h25.6v51.2H25.6C10.2,230.4,0,240.6,0,256c0,12.8,10.2,25.6,25.6,25.6h25.6v51.2H25.6
			C10.2,332.8,0,343,0,358.4C0,371.2,10.2,384,25.6,384h25.6v25.6c0,28.2,23,51.2,51.2,51.2H128v25.6c0,12.8,10.2,25.6,25.6,25.6
			s25.6-10.2,25.6-25.6v-25.6h51.2v25.6c0,12.8,10.2,25.6,25.6,25.6s25.6-10.2,25.6-25.6v-25.6h51.2v25.6
			c0,12.8,10.2,25.6,25.6,25.6c12.8,0,25.6-10.2,25.6-25.6v-25.6h25.6c28.2,0,51.2-23,51.2-51.2V384h25.6
			c15.4,0,25.6-10.2,25.6-25.6c0-12.8-10.2-25.6-25.6-25.6h-25.6v-51.2L486.4,281.6L486.4,281.6z M409.6,409.6H102.4V102.4h307.2
			V409.6z"/>
	</g>
</g>
</svg>
