<?xml version="1.0" encoding="utf-8"?>
<!-- Generator: Adobe Illustrator 23.0.1, SVG Export Plug-In . SVG Version: 6.00 Build 0)  -->
<svg version="1.1" id="Layer_1" xmlns="http://www.w3.org/2000/svg" xmlns:xlink="http://www.w3.org/1999/xlink" x="0px" y="0px"
	 viewBox="0 0 512 512" style="enable-background:new 0 0 512 512;" xml:space="preserve">
<style type="text/css">
	.st0{fill:#FFFFFF;}
</style>
<g>
	<path class="st0" d="M149.4,317.9c11.9,9.7,26.5,16.1,42.6,17.7v-40.4c-5-1-9.8-3-14.1-5.8L149.4,317.9z"/>
	<path class="st0" d="M250.6,194.1c-11.9-9.7-26.5-16.1-42.6-17.7v40.4c5,1,9.8,3,14.1,5.8L250.6,194.1z"/>
	<path class="st0" d="M192,216.8v-40.4c-16.1,1.6-30.7,8-42.6,17.7l28.5,28.5C182.2,219.8,187,217.8,192,216.8z"/>
	<path class="st0" d="M223.9,258.5C223.9,258.5,223.9,258.5,223.9,258.5c0-0.4,0.1-0.7,0.1-1.1c0-0.1,0-0.2,0-0.3c0-0.4,0-0.8,0-1.2
		s0-0.8,0-1.2c0-0.1,0-0.2,0-0.3c0-0.3,0-0.6-0.1-1c0,0,0-0.1,0-0.1c-1.2-11.2-10.1-20.2-21.3-21.3c0,0-0.1,0-0.1,0
		c-0.3,0-0.6-0.1-1-0.1c-0.1,0-0.2,0-0.3,0c-0.4,0-0.8,0-1.2,0s-0.8,0-1.2,0c-0.1,0-0.2,0-0.3,0c-0.3,0-0.6,0-1,0.1c0,0-0.1,0-0.1,0
		c-11.2,1.2-20.2,10.1-21.3,21.3c0,0,0,0.1,0,0.1c0,0.3-0.1,0.6-0.1,1c0,0.1,0,0.2,0,0.3c0,0.4,0,0.8,0,1.2s0,0.8,0,1.2
		c0,0.1,0,0.2,0,0.3c0,0.3,0,0.6,0.1,1c0,0,0,0.1,0,0.1c1.2,11.2,10.1,20.2,21.3,21.3c0,0,0.1,0,0.1,0c0.3,0,0.6,0.1,1,0.1
		c0.1,0,0.2,0,0.3,0c0.4,0,0.8,0,1.2,0s0.8,0,1.2,0c0.1,0,0.2,0,0.3,0c0.3,0,0.6,0,1-0.1c0,0,0.1,0,0.1,0
		C213.8,278.7,222.7,269.8,223.9,258.5z"/>
	<path class="st0" d="M166.6,233.9l-28.5-28.5c-9.7,11.9-16.1,26.5-17.7,42.6h40.4C161.8,243,163.8,238.2,166.6,233.9z"/>
	<path class="st0" d="M160.8,264h-40.4c1.6,16.1,8,30.7,17.7,42.6l28.5-28.5C163.8,273.8,161.8,269,160.8,264z"/>
	<path class="st0" d="M233.4,233.9c2.8,4.3,4.8,9,5.8,14.1h40.4c-1.6-16.1-8-30.7-17.7-42.6L233.4,233.9z"/>
	<path class="st0" d="M208,295.2v40.4c16.1-1.6,30.7-8,42.6-17.7l-28.5-28.5C217.8,292.2,213,294.2,208,295.2z"/>
	<path class="st0" d="M344,176c1.7,0,3.4,0.6,4.8,1.6l29.9,22.4H512v-56c0-2.9-0.8-5.6-2.2-8H98.7L88,144v223l11.2,9h410.6
		c1.4-2.4,2.2-5.1,2.2-8v-56H393.9l-46.3,23.2c-1.1,0.6-2.3,0.8-3.6,0.8h-56v-16h54.1l46.3-23.2c1.1-0.6,2.3-0.8,3.6-0.8h120v-16
		h-96v-16h96v-16h-96v-16h96v-16H376c-1.7,0-3.4-0.6-4.8-1.6L341.3,192H288v-16H344z M304,208h24c1.7,0,3.4,0.6,4.8,1.6l29.9,22.4
		H400v16h-40c-1.7,0-3.4-0.6-4.8-1.6L325.3,224H304V208z M304,288h21.3l29.9-22.4c1.4-1,3.1-1.6,4.8-1.6h40v16h-37.3l-29.9,22.4
		c-1.4,1-3.1,1.6-4.8,1.6h-24V288z M295.9,250.9c0,0.1,0,0.1,0,0.2c0,0.6,0.1,1.3,0.1,1.9c0,0.2,0,0.4,0,0.5c0,0.8,0,1.6,0,2.4
		s0,1.6,0,2.4c0,0.2,0,0.4,0,0.5c0,0.6,0,1.3-0.1,1.9c0,0.1,0,0.1,0,0.2c-1.2,23.7-11.1,45.8-28,62.8c-16.9,16.9-39,26.7-62.8,28
		c-0.1,0-0.1,0-0.2,0c-0.6,0-1.3,0.1-1.9,0.1c-0.2,0-0.4,0-0.5,0c-0.8,0-1.6,0-2.4,0s-1.6,0-2.4,0c-0.2,0-0.4,0-0.5,0
		c-0.6,0-1.3,0-1.9-0.1c-0.1,0-0.1,0-0.2,0c-23.7-1.2-45.8-11.1-62.8-28c-16.9-16.9-26.7-39-28-62.8c0-0.1,0-0.1,0-0.2
		c0-0.6-0.1-1.3-0.1-1.9c0-0.2,0-0.4,0-0.5c0-0.8,0-1.6,0-2.4s0-1.6,0-2.4c0-0.2,0-0.4,0-0.5c0-0.6,0-1.3,0.1-1.9c0-0.1,0-0.1,0-0.2
		c1.2-23.7,11.1-45.8,28-62.8c16.9-16.9,39-26.7,62.8-28c0.1,0,0.1,0,0.2,0c0.6,0,1.3-0.1,1.9-0.1c0.2,0,0.4,0,0.5,0
		c0.8,0,1.6,0,2.4,0s1.6,0,2.4,0c0.2,0,0.4,0,0.5,0c0.6,0,1.3,0,1.9,0.1c0.1,0,0.1,0,0.2,0c23.7,1.2,45.8,11.1,62.8,28
		C284.8,205,294.6,227.2,295.9,250.9z"/>
	<path class="st0" d="M233.4,278.1l28.5,28.5c9.7-11.9,16.1-26.5,17.7-42.6h-40.4C238.2,269,236.2,273.8,233.4,278.1z"/>
	<path class="st0" d="M448,404.7V392h-16v16c0,2.1,0.8,4.2,2.3,5.7l8,8c1.5,1.5,3.5,2.3,5.7,2.3h32v-16h-28.7L448,404.7z"/>
	<path class="st0" d="M128,408h-16v16h24c4.4,0,8-3.6,8-8v-24h-16V408z"/>
	<rect x="16" y="112" class="st0" width="16" height="16"/>
	<rect x="16" y="400" class="st0" width="16" height="16"/>
	<rect y="64" class="st0" width="32" height="16"/>
	<path class="st0" d="M496,112c0-8.8-7.2-16-16-16H128c-8.8,0-16,7.2-16,16v8h384V112z"/>
	<path class="st0" d="M0,320v48c0,8.8,7.2,16,16,16h16v-80H16C7.2,304,0,311.2,0,320z"/>
	<path class="st0" d="M0,160v48c0,8.8,7.2,16,16,16h16v-80H16C7.2,144,0,151.2,0,160z"/>
	<path class="st0" d="M56,64h-8v384h8c2.7,0,5.2-1.3,6.7-3.6l9.3-14V81.6l-9.3-14C61.2,65.3,58.7,64,56,64z"/>
	<path class="st0" d="M240,392h-16h-25.3H176v8c0,8.8,7.2,16,16,16h6.7h9.3h48h17.5H384c8.8,0,16-7.2,16-16v-8H273.5H240z"/>
	<polygon class="st0" points="16,256 16,272 16,288 32,288 32,272 32,256 32,240 16,240 	"/>
</g>
</svg>
