<?xml version="1.0" encoding="utf-8"?>
<!-- Generator: Adobe Illustrator 23.0.1, SVG Export Plug-In . SVG Version: 6.00 Build 0)  -->
<svg version="1.1" id="Layer_1" xmlns="http://www.w3.org/2000/svg" xmlns:xlink="http://www.w3.org/1999/xlink" x="0px"
     y="0px"
     viewBox="0 0 512 512" style="enable-background:new 0 0 512 512;" xml:space="preserve">
<style type="text/css">
	.st0{fill:#FFFFFF;}
</style>
    <g>
	<path class="st0" d="M159.6,281.2c13.9,0,25.2-11.3,25.2-25.2s-11.3-25.2-25.2-25.2s-25.2,11.3-25.2,25.2
		C134.4,269.9,145.7,281.2,159.6,281.2z"/>
        <path class="st0" d="M159.6,311.2c-21.9,0-40.6,14.4-46.9,34.3h93.9C200.2,325.6,181.5,311.2,159.6,311.2z"/>
        <path class="st0" d="M464.9,72.3H47.1C20.8,72.3,0,93.7,0,119.4v273.1c0,26.3,21.4,47.1,47.1,47.1h417.7
		c26.3,0,47.1-21.4,47.1-47.1V119.4C512,93.1,490.6,72.3,464.9,72.3L464.9,72.3z M223.9,375.4H95.3c-8.3,0-15-6.7-15-15
		c0-28.7,15.3-53.8,38.1-67.7c-8.7-9.8-14-22.6-14-36.7c0-30.4,24.7-55.2,55.2-55.2s55.2,24.7,55.2,55.2c0,14.1-5.3,26.9-14,36.7
		c22.8,13.9,38.1,39.1,38.1,67.7C238.9,368.7,232.1,375.4,223.9,375.4L223.9,375.4z M384.5,375.4h-80.3c-8.3,0-15-6.7-15-15
		s6.7-15,15-15h80.3c8.3,0,15,6.7,15,15S392.8,375.4,384.5,375.4z M416.7,311.2H304.2c-8.3,0-15-6.7-15-15s6.7-15,15-15h112.5
		c8.3,0,15,6.7,15,15S425,311.2,416.7,311.2z M416.7,246.9H304.2c-8.3,0-15-6.7-15-15s6.7-15,15-15h112.5c8.3,0,15,6.7,15,15
		S425,246.9,416.7,246.9z M416.7,166.6H95.3c-8.3,0-15-6.7-15-15s6.7-15,15-15h321.3c8.3,0,15,6.7,15,15S425,166.6,416.7,166.6z"/>
</g>
</svg>
