<?xml version="1.0" encoding="utf-8"?>
<!-- Generator: Adobe Illustrator 23.0.1, SVG Export Plug-In . SVG Version: 6.00 Build 0)  -->
<svg version="1.1" id="Capa_1" xmlns="http://www.w3.org/2000/svg" xmlns:xlink="http://www.w3.org/1999/xlink" x="0px" y="0px"
	 viewBox="0 0 512 512" style="enable-background:new 0 0 512 512;" xml:space="preserve">
<style type="text/css">
	.st0{fill:#FFFFFF;}
</style>
<g>
	<path class="st0" d="M0,172.2l4.4,4.4c10.7,10.7,10.7,28.1,0,38.8L0,219.8V331h512V219.8l-4.4-4.4c-10.7-10.7-10.7-28.1,0-38.8
		l4.4-4.4V121H0V172.2z M391,181h30v90h-30V181z M331,181h30v90h-30V181z M271,181h30v90h-30V181z M211,181h30v90h-30V181z M151,181
		h30v90h-30V181z M91,181h30v90H91V181z"/>
	<path class="st0" d="M30,361h151v30H30V361z"/>
	<path class="st0" d="M211,361h271v30H211V361z"/>
</g>
</svg>
