<svg width="108" height="104" viewBox="0 0 108 104" fill="none" xmlns="http://www.w3.org/2000/svg">
    <g clip-path="url(#clip0)">
        <path d="M0 15.4541L15.4541 0H107.987V88.2226L92.5012 103.709H0.06386L0 15.4541Z" fill="#00467F"/>
        <path d="M30.1099 60.7308H27.8748V59.1343H30.0141V58.1764H27.8748V56.7076H30.0141V55.7497H26.9489V61.6568H30.1419V60.7628L30.1099 60.7308ZM57.1546 56.7076V55.7497H54.0894V61.6568H57.2824V60.7628H55.0473V59.1663H57.0908V58.2084H55.0153V56.7396H57.1866L57.1546 56.7076ZM21.7123 59.1663H24.4264V61.6568H25.3843V55.8136H24.4264V58.2722H21.7123V55.8136H20.7544V61.6249H21.7123V59.1663ZM35.7615 61.7207C36.0929 61.7503 36.4268 61.7086 36.7407 61.5984C37.0546 61.4883 37.3413 61.3122 37.5816 61.0821C37.9912 60.592 38.197 59.9633 38.1563 59.3259V55.8136H37.1984V59.1663C37.1984 59.8049 37.1345 60.1242 36.943 60.3477C36.7936 60.4971 36.6132 60.6118 36.4145 60.6835C36.2159 60.7553 36.0038 60.7823 35.7935 60.7628C35.6112 60.7609 35.4313 60.7201 35.2661 60.643C35.1009 60.5659 34.9541 60.4543 34.8356 60.3157C34.5801 60.0603 34.5163 59.8049 34.5163 59.1982V55.7497H33.6222V59.3898C33.5998 59.7109 33.6451 60.0331 33.7551 60.3356C33.8651 60.6382 34.0374 60.9142 34.2608 61.1459C34.6968 61.5399 35.2703 61.7464 35.8573 61.7207H35.7615ZM44.4465 61.6249V55.7817H43.5525V59.9326L40.2317 55.7817H39.4974V61.6249H40.3914V57.474L43.6483 61.6249H44.4465ZM52.908 55.7817H51.9501L50.5132 59.6133L49.0444 55.7817H48.0865L50.3216 61.6887H50.6409L52.908 55.7817ZM62.0399 61.6249H63.1575L63.0298 61.4333L62.3912 60.3796L61.8164 59.4856C61.6819 59.2743 61.521 59.0812 61.3375 58.9108C61.5882 58.7742 61.7957 58.5703 61.9368 58.3221C62.0778 58.0739 62.1467 57.7912 62.1357 57.5059C62.1509 57.2712 62.116 57.036 62.0335 56.8158C61.9509 56.5957 61.8225 56.3955 61.6568 56.2287C61.298 55.9354 60.8422 55.7873 60.3796 55.8136H58.9747V61.6249H59.9326V59.1982H60.1241C60.4434 59.1982 60.6989 59.294 61.4013 60.4754L62.0399 61.6249ZM61.1459 57.474C61.1518 57.6724 61.0835 57.866 60.9543 58.0168C60.8529 58.1126 60.7318 58.1851 60.5994 58.2292C60.467 58.2733 60.3266 58.288 60.188 58.2722H59.8687V56.6757H60.188C60.8266 56.6757 61.1459 56.8992 61.1459 57.4101V57.474ZM65.5203 56.7076C65.7358 56.7229 65.9459 56.7816 66.138 56.8804C66.3301 56.9792 66.5001 57.116 66.6378 57.2824L66.7656 57.4101H66.8294V56.2287C66.4811 55.9617 66.055 55.8159 65.6161 55.8136C65.3942 55.8032 65.1725 55.8374 64.9641 55.9141C64.7557 55.9909 64.5648 56.1087 64.4027 56.2606C64.2518 56.4168 64.1343 56.6021 64.0574 56.8052C63.9806 57.0084 63.946 57.2251 63.9557 57.442C63.9557 58.2722 64.5305 58.7192 65.1052 59.1024L65.2329 59.1663L65.5522 59.3578C65.6672 59.4554 65.7739 59.5622 65.8715 59.6771C65.9658 59.7559 66.0428 59.8533 66.0977 59.9632C66.1526 60.073 66.1843 60.1931 66.1908 60.3157C66.1837 60.406 66.1574 60.4938 66.1137 60.5732C66.07 60.6525 66.0099 60.7217 65.9374 60.7761C65.8649 60.8304 65.7817 60.8687 65.6933 60.8885C65.6048 60.9082 65.5132 60.9089 65.4245 60.8905C65.1624 60.8728 64.9087 60.7907 64.6859 60.6514C64.4631 60.5122 64.2781 60.3201 64.1473 60.0922L64.0196 59.9326V59.8687V61.3056C64.4277 61.6577 64.9493 61.8505 65.4884 61.8484C65.6978 61.8509 65.9054 61.8096 66.0978 61.7271C66.2903 61.6447 66.4634 61.5228 66.6059 61.3694C66.88 61.0498 67.0276 60.6409 67.021 60.2199C67.021 59.262 66.4463 58.7831 65.8715 58.3999L65.4884 58.1445C65.3767 58.0661 65.2701 57.9807 65.1691 57.8891C65.0659 57.8186 64.9825 57.7229 64.9266 57.6112C64.8707 57.4994 64.8443 57.3753 64.8498 57.2505C64.8808 57.0924 64.9705 56.9519 65.1008 56.8572C65.231 56.7625 65.3923 56.7204 65.5522 56.7396L65.5203 56.7076ZM77.5898 61.6249H78.4839V58.5915L80.4955 55.7817H79.3779L78.1007 57.6975L76.7277 55.7817H75.6102L77.5898 58.5915V61.6568V61.6249ZM45.9791 55.7817H46.937V61.6249H45.9791V55.7817ZM68.6494 55.7817H69.5435V61.6249H68.5856L68.6494 55.7817ZM17.3379 61.6249H18.2958V56.7076H20.052V55.7497H15.5818V56.7076H17.3379V61.6249ZM72.481 61.6249H73.4389V56.7076H75.227V55.7497H70.7568V56.7076H72.513V61.6249H72.481ZM90.0425 58.9747H91.9583V58.0168H90.0425V56.7396H91.9583V55.7817H89.0846V61.6249H90.0425V58.9747ZM85.1572 61.7207C85.5474 61.7316 85.9353 61.6573 86.2937 61.5029C86.6522 61.3485 86.9726 61.1177 87.2327 60.8266C87.7155 60.2427 87.9797 59.5088 87.9797 58.7512C87.9797 57.9935 87.7155 57.2596 87.2327 56.6757C86.97 56.3974 86.6533 56.1757 86.3019 56.0241C85.9505 55.8726 85.5719 55.7944 85.1892 55.7944C84.8065 55.7944 84.4278 55.8726 84.0764 56.0241C83.7251 56.1757 83.4083 56.3974 83.1457 56.6757C82.651 57.2541 82.3791 57.9901 82.3791 58.7512C82.3791 59.5122 82.651 60.2483 83.1457 60.8266C83.3986 61.1095 83.7087 61.3354 84.0555 61.4895C84.4023 61.6436 84.7778 61.7224 85.1572 61.7207ZM83.8801 57.2505C84.046 57.0794 84.2445 56.9433 84.4638 56.8501C84.6832 56.7569 84.9189 56.7084 85.1572 56.7076C86.2429 56.7076 87.0731 57.5698 87.0731 58.7512C87.0755 59.2961 86.87 59.8214 86.4983 60.2199C86.3278 60.4058 86.1206 60.5541 85.8897 60.6556C85.6589 60.7571 85.4094 60.8095 85.1572 60.8095C84.9051 60.8095 84.6556 60.7571 84.4248 60.6556C84.1939 60.5541 83.9867 60.4058 83.8162 60.2199C83.4613 59.8129 83.2658 59.2912 83.2658 58.7512C83.2658 58.2112 83.4613 57.6894 83.8162 57.2824L83.8801 57.2505ZM67.2765 65.7758H66.1589L62.3273 75.8018H63.9238L65.0094 72.9281H68.5217L69.6393 75.8018H71.2996L67.2765 65.7758ZM65.68 71.3635C65.68 71.2677 66.6378 68.7133 66.7017 68.4898C66.7017 68.6814 67.7873 71.2677 67.8193 71.3635H65.5842H65.68ZM60.8904 74.2053H56.9631V65.7758H55.3666V75.7699H60.8904V74.1734V74.2053ZM18.2639 72.9281H21.7762L22.8938 75.8018H24.4903L20.5309 65.7438H19.4134L15.5818 75.7699H17.1783L18.2639 72.8962V72.9281ZM19.9562 68.5217L21.0737 71.3954H18.9025C18.9025 71.2677 19.8604 68.6814 19.9562 68.5217ZM43.4886 75.0355V73.0558H43.4247L43.2012 73.2474C42.3559 73.8964 41.3288 74.2648 40.2637 74.3011C39.8257 74.3085 39.3906 74.2275 38.9846 74.0629C38.5786 73.8984 38.21 73.6535 37.9009 73.3432C37.5789 73.0028 37.3283 72.6015 37.1638 72.1628C36.9993 71.7241 36.9242 71.2569 36.943 70.7888C36.9355 69.8673 37.2778 68.9772 37.9009 68.2982C38.2022 67.9733 38.5679 67.7146 38.9747 67.5387C39.3815 67.3628 39.8205 67.2735 40.2637 67.2765C41.2954 67.3038 42.2956 67.6372 43.1374 68.2344L43.3609 68.3621L43.4247 68.426L43.329 66.5102C42.0518 65.8716 41.1577 65.648 40.2317 65.648C37.358 65.648 35.3145 67.8831 35.3145 70.9165C35.3329 72.0983 35.7365 73.2418 36.464 74.1734C36.9051 74.7286 37.4694 75.1736 38.1123 75.4728C38.7552 75.7721 39.459 75.9175 40.1679 75.8976C41.3443 75.907 42.498 75.5742 43.4886 74.9397V75.0355ZM48.9486 70.5653L52.876 65.7758H50.8644L47.4799 69.9267V65.7758H45.8834V75.7699H47.4799V71.2997L51.6308 75.7699H53.8659L48.9486 70.5653ZM91.3197 67.4361C90.8775 66.9154 90.3232 66.5013 89.6985 66.2248C89.0737 65.9484 88.3945 65.8167 87.7117 65.8396H84.1994V75.7379H87.7117C88.3707 75.7562 89.0259 75.6315 89.6323 75.3725C90.2386 75.1134 90.7816 74.7261 91.224 74.2372C92.0501 73.2784 92.5034 72.0543 92.5012 70.7888C92.5039 69.5741 92.0992 68.3936 91.3517 67.4361H91.3197ZM87.552 74.2053H85.732V67.3723H87.4881C87.9577 67.3399 88.4287 67.4086 88.8693 67.5739C89.31 67.7391 89.7101 67.997 90.0425 68.3302C90.6115 69.0184 90.8969 69.8976 90.8408 70.7888C90.8408 72.066 90.2022 74.2053 87.552 74.2053ZM29.4394 75.9295C30.7166 75.9295 31.7384 75.5463 32.4408 74.78C33.1433 74.0137 33.4626 73.0558 33.4626 71.8425V65.7758H31.8661V71.587C31.8661 72.6088 31.7064 73.1835 31.3552 73.5667C31.1076 73.8198 30.8082 74.0165 30.4776 74.1433C30.1469 74.27 29.7928 74.3238 29.4394 74.3011C29.1082 74.3115 28.7788 74.2482 28.475 74.1156C28.1713 73.9831 27.9009 73.7847 27.6833 73.5348C27.364 73.1197 27.2043 72.7046 27.2043 71.6828V65.7758H25.6078V71.9702C25.6078 73.2474 26.0229 74.2691 26.7892 74.9716C27.5107 75.6084 28.4454 75.9503 29.4075 75.9295H29.4394ZM80.0484 72.9281L74.3968 65.7758H73.1835V75.7699H74.6842V68.6495L80.2081 75.7699H81.4853V65.8077H80.0165V72.9919L80.0484 72.9281ZM18.7429 86.9453L16.3162 84.0716H15.6776V88.1587H16.4439V85.285L18.8706 88.1587H19.5092V84.1355H18.7748V87.0092L18.7429 86.9453ZM24.4264 86.4025H26.1825V85.7639H24.4264V84.7102H26.2783V84.0716H23.6281V88.1587H26.3103V87.5839H24.3945V86.4345L24.4264 86.4025ZM34.4843 86.626L33.3987 84.0716H32.7601L31.6745 86.626L30.6527 84.0716H29.8545L31.5149 88.2225H31.7703L33.0475 85.1892L34.3247 88.2225H34.644L36.3044 84.0716H35.5061L34.4843 86.626ZM48.2142 84.1036H44.6381V84.7422H46.8732L44.4784 88.1587H48.2462V87.5839H45.8834L48.2462 84.1355L48.2142 84.1036ZM52.8441 86.4025H54.6002V85.7639H52.8441V84.7102H54.696V84.0716H52.0458V88.1587H54.728V87.5839H52.8122V86.4345L52.8441 86.4025ZM59.9326 84.1036L58.2722 88.1587H59.1024L59.5175 87.2008H61.3375L61.7526 88.1587H62.5827L60.7308 84.1355H59.9326V84.1036ZM59.741 86.5941L60.3796 84.9976L61.082 86.5941H59.8048H59.741ZM67.0529 84.1036H66.2547V88.1268H69.0007V87.552H67.0849V84.1036H67.0529ZM74.0775 84.1036L72.3533 88.1587H73.1835L73.5667 87.2008H75.3867L75.8337 88.1587H76.6639L74.8439 84.1355H74.0456L74.0775 84.1036ZM73.8221 86.5941L74.4607 84.9976L75.0993 86.5941H73.8221ZM83.465 86.9453L81.0383 84.0716H80.3358V88.1587H81.1021V85.285L83.5288 88.1587H84.2313V84.1355H83.465V87.0092V86.9453ZM91.1601 84.359C90.8137 84.1847 90.4302 84.097 90.0425 84.1036H88.3503V88.1268H90.0106C90.3952 88.1374 90.7772 88.061 91.1282 87.9032C91.4454 87.7471 91.7113 87.5033 91.8945 87.2008C92.0689 86.8889 92.157 86.5363 92.1499 86.179C92.1419 85.8052 92.0314 85.4407 91.8306 85.1253C91.6581 84.8176 91.404 84.5635 91.0962 84.3909L91.1601 84.359ZM91.0004 87.1689C90.7235 87.426 90.3564 87.5636 89.9787 87.552H89.1485V84.6783H89.9468C90.1464 84.67 90.3457 84.7025 90.5324 84.7739C90.719 84.8453 90.8892 84.954 91.0324 85.0934C91.2927 85.3763 91.4371 85.7467 91.4371 86.1311C91.4371 86.5156 91.2927 86.886 91.0324 87.1689H91.0004ZM15.6456 79.825H92.4054V80.2401H15.6456V79.825ZM38.5395 15.486V31.1317C38.5395 34.8356 41.2854 45.5002 53.8659 50.8006L54.0574 50.8964L54.249 50.8325C66.7975 45.596 69.5754 34.8675 69.5754 31.1956V15.5499H38.5075L38.5395 15.486Z"
              fill="white"/>
        <path d="M41.8922 25.8633L41.7964 25.7995C41.0704 25.3744 40.2429 25.1538 39.4016 25.1609C39.3484 25.1576 39.2951 25.1576 39.242 25.1609H39.1781V31.1318C39.1781 31.2595 39.5932 44.0634 54.0255 50.1301C68.4898 44.0634 68.873 31.2914 68.873 31.1318V25.2247H68.6814C67.851 25.2234 67.0353 25.4438 66.3186 25.8633C65.5517 26.3061 64.6817 26.5392 63.7961 26.5392C62.9106 26.5392 62.0406 26.3061 61.2737 25.8633C60.5553 25.4486 59.7404 25.2302 58.9108 25.2302C58.0813 25.2302 57.2664 25.4486 56.548 25.8633C55.7811 26.3061 54.9111 26.5392 54.0255 26.5392C53.14 26.5392 52.27 26.3061 51.5031 25.8633V25.7995C50.7847 25.3847 49.9698 25.1664 49.1403 25.1664C48.3107 25.1664 47.4958 25.3847 46.7774 25.7995H46.7136C45.9752 26.2174 45.1434 26.4423 44.2951 26.4534C43.4468 26.4646 42.6093 26.2616 41.8602 25.8633H41.8922Z"
              fill="#00467F"/>
        <path d="M43.5525 18.264C43.7514 18.0355 43.9966 17.8519 44.2718 17.7253C44.5471 17.5987 44.846 17.532 45.149 17.5296C47.4479 17.4338 48.5974 19.1261 48.5655 20.531C48.5655 22.1275 47.2883 22.4468 47.1606 22.5426C47.1731 22.8267 47.2613 23.1023 47.416 23.3408C47.4342 23.3635 47.444 23.3916 47.444 23.4207C47.444 23.4497 47.4342 23.4778 47.416 23.5005C47.4185 23.543 47.4185 23.5857 47.416 23.6282C47.4072 23.6484 47.4027 23.6701 47.4027 23.6921C47.4027 23.714 47.4072 23.7358 47.416 23.7559C47.4219 23.8251 47.4136 23.8948 47.3916 23.9607C47.3697 24.0265 47.3345 24.0873 47.2883 24.1391C47.2485 24.3501 47.2485 24.5667 47.2883 24.7777C47.2883 24.8416 47.2883 24.8416 47.2883 24.7777C47.129 24.6335 47.0176 24.4441 46.969 24.2349C46.6619 24.3825 46.4141 24.6302 46.2665 24.9373C46.2665 24.9373 46.2027 25.0012 46.1707 24.9373C46.1639 24.7751 46.1984 24.6138 46.271 24.4686C46.3436 24.3234 46.452 24.199 46.5858 24.1072C46.4763 24.0843 46.3632 24.0838 46.2535 24.1058C46.1437 24.1277 46.0396 24.1716 45.9472 24.2349C45.9472 24.2349 45.8834 24.2349 45.9472 24.2349C45.9472 24.2349 46.075 23.9156 46.6497 23.8198C46.7232 23.6971 46.7873 23.569 46.8413 23.4366C46.8063 23.1671 46.7196 22.9069 46.5858 22.6703C46.3067 22.7073 46.0423 22.8175 45.8195 22.9896C45.8021 22.9995 45.7873 23.0133 45.7762 23.0299C45.7651 23.0465 45.7581 23.0656 45.7557 23.0854V23.2131C45.7511 23.2573 45.7335 23.2991 45.705 23.3332C45.6766 23.3674 45.6386 23.3922 45.596 23.4047L44.8297 23.724C44.6795 23.8002 44.5486 23.9094 44.4465 24.0433C44.3631 24.1537 44.2533 24.2415 44.1272 24.2987C44.0395 24.3306 43.9622 24.3858 43.9037 24.4584C43.8463 24.5284 43.7822 24.5926 43.7121 24.65C43.5734 24.7602 43.4638 24.9027 43.3928 25.0651C43.3928 25.0651 43.3928 25.1289 43.3928 25.0651V24.8735C43.4332 24.6937 43.5215 24.5282 43.6483 24.3945C43.6271 24.3976 43.6056 24.3976 43.5844 24.3945C43.2092 24.3622 42.8311 24.3946 42.4669 24.4903C42.4669 24.4903 42.403 24.4903 42.4669 24.4903C42.4669 24.3945 42.6265 24.0433 43.4248 24.0433C43.3534 23.9722 43.2687 23.9159 43.1756 23.8775C43.0825 23.8392 42.9827 23.8195 42.882 23.8198V23.6282C43.0175 23.584 43.1622 23.5755 43.302 23.6035C43.4418 23.6314 43.5721 23.6949 43.6802 23.7879C43.8235 23.7273 43.9736 23.6844 44.1272 23.6601C44.3677 23.4299 44.6237 23.2166 44.8935 23.0215C44.8839 22.958 44.8839 22.8935 44.8935 22.83C44.6956 22.5488 44.5846 22.2157 44.5742 21.8721C44.1079 21.7521 43.7 21.4689 43.4248 21.0738C43.1416 21.0167 42.877 20.8907 42.6542 20.7069C42.4314 20.5231 42.2574 20.2872 42.1476 20.0201C40.9342 20.8822 40.2318 22.3829 40.136 22.4468H40.0721C39.9648 22.2293 39.9312 21.9827 39.9763 21.7443C40.3201 20.942 40.7713 20.1901 41.3174 19.5092C41.0939 18.232 42.2753 17.8489 42.7542 17.8489C42.9189 17.8541 43.0807 17.8938 43.2292 17.9652C43.3777 18.0367 43.5095 18.1385 43.6163 18.264H43.5525Z"
              fill="#00467F"/>
        <path d="M45.8515 18.4555C45.9614 18.3426 46.1093 18.2744 46.2665 18.2639C46.0858 18.1829 45.8899 18.141 45.6918 18.141C45.4937 18.141 45.2978 18.1829 45.1171 18.2639C45.2013 18.1374 45.3099 18.0289 45.4364 17.9446C45.0881 17.9255 44.7456 18.0397 44.4785 18.2639C44.5303 18.1433 44.6064 18.0346 44.702 17.9446C44.0634 17.9446 43.4248 18.8387 43.4248 18.8387C43.3915 18.6711 43.3053 18.5185 43.1788 18.4036C43.0523 18.2886 42.8923 18.2173 42.7223 18.2001C42.2434 18.1362 41.2216 18.7748 41.6367 19.605C41.4451 19.9243 40.8384 20.4671 40.3595 21.5208V21.5846C40.7746 20.946 41.4451 20.0839 42.1476 19.6688C42.2114 19.7327 42.5946 20.7545 43.5206 20.8183C43.6164 20.8822 44.0634 21.6485 44.8616 21.5527C44.8609 21.91 44.9148 22.2653 45.0213 22.6064C45.31 22.3918 45.6342 22.2297 45.9792 22.1275C46.0296 21.9069 46.1046 21.6927 46.2027 21.4889C46.5332 21.4247 46.8326 21.2513 47.0526 20.9965C47.2727 20.7417 47.4007 20.4203 47.416 20.0839C47.416 19.2218 46.6816 18.3278 45.8195 18.4236L45.8515 18.4555ZM42.0199 19.4134C41.9799 19.4197 41.939 19.4131 41.903 19.3947C41.867 19.3763 41.8378 19.347 41.8195 19.311C41.8011 19.2749 41.7947 19.234 41.801 19.1941C41.8074 19.1541 41.8262 19.1173 41.8548 19.0887C41.8833 19.0601 41.9202 19.0413 41.9602 19.0349C42.0001 19.0286 42.041 19.035 42.0771 19.0534C42.1131 19.0717 42.1424 19.1009 42.1608 19.1369C42.1792 19.1729 42.1858 19.2138 42.1795 19.2538C42.1801 19.2995 42.1644 19.3439 42.1351 19.3791C42.1058 19.4142 42.065 19.4377 42.0199 19.4453V19.4134Z"
              fill="white"/>
        <path d="M53.2592 18.264C53.4581 18.0355 53.7033 17.8519 53.9785 17.7253C54.2538 17.5987 54.5528 17.532 54.8557 17.5296C57.1546 17.4338 58.368 19.1261 58.2722 20.531C58.2722 22.1275 56.995 22.4468 56.8673 22.5426C56.8987 22.8329 57.0092 23.109 57.1866 23.3408C57.2047 23.3635 57.2146 23.3916 57.2146 23.4207C57.2146 23.4497 57.2047 23.4778 57.1866 23.5005C57.158 23.5455 57.126 23.5882 57.0908 23.6282C57.082 23.6484 57.0775 23.6701 57.0775 23.6921C57.0775 23.714 57.082 23.7358 57.0908 23.7559C57.1208 23.8871 57.0978 24.0248 57.0269 24.1391C56.9872 24.3501 56.9872 24.5667 57.0269 24.7777C57.0269 24.8416 57.0269 24.8416 57.0269 24.7777C56.866 24.6349 56.7543 24.4449 56.7076 24.2349C56.3816 24.3821 56.1204 24.6432 55.9732 24.9693C55.9732 24.9693 55.8774 25.0331 55.8774 24.9693C55.8671 24.8099 55.8967 24.6505 55.9636 24.5055C56.0305 24.3605 56.1326 24.2346 56.2606 24.1391C56.151 24.1162 56.038 24.1158 55.9283 24.1377C55.8185 24.1597 55.7143 24.2036 55.622 24.2668C55.622 24.2668 55.5581 24.3307 55.622 24.2668C55.622 24.2668 55.7497 23.9475 56.3245 23.8517C56.3949 23.7494 56.4589 23.6428 56.516 23.5324C56.4861 23.2517 56.3991 22.9801 56.2606 22.7342C55.9875 22.7522 55.7236 22.8402 55.4943 22.9896C55.4721 23.0021 55.4542 23.021 55.4428 23.0437C55.4315 23.0665 55.4271 23.0921 55.4304 23.1173V23.2451C55.4204 23.2834 55.4003 23.3185 55.3722 23.3465C55.3442 23.3746 55.3092 23.3947 55.2708 23.4047L54.5364 23.724C54.3856 23.7993 54.2544 23.9086 54.1532 24.0433C54.0783 24.1772 53.9678 24.2877 53.8339 24.3626C53.7417 24.3708 53.6534 24.4039 53.5785 24.4584C53.5197 24.5174 53.4556 24.5709 53.3869 24.618C53.2671 24.7444 53.1795 24.8977 53.1315 25.0651C53.1315 25.0651 53.1315 25.1289 53.1315 25.0651V24.8735C53.1572 24.6858 53.2346 24.5089 53.355 24.3626C53.3234 24.3695 53.2907 24.3695 53.2592 24.3626C52.8821 24.3407 52.5041 24.3839 52.1416 24.4903C52.1416 24.3626 52.3013 24.0433 53.0995 24.0114C53.0282 23.9403 52.9435 23.8839 52.8504 23.8456C52.7572 23.8072 52.6575 23.7876 52.5567 23.7879C52.4929 23.7879 52.5567 23.7879 52.5567 23.7879C52.6801 23.7359 52.8143 23.7146 52.9477 23.7257C53.0812 23.7368 53.2099 23.7801 53.323 23.8517C53.4561 23.7936 53.5954 23.7507 53.7381 23.724C53.9895 23.4933 54.2562 23.28 54.5364 23.0854C54.5297 23.0324 54.5297 22.9788 54.5364 22.9258C54.3281 22.6258 54.2167 22.2692 54.2171 21.904C53.7555 21.7923 53.3483 21.5208 53.0676 21.1377C52.7878 21.0838 52.5253 20.9626 52.3028 20.7846C52.0803 20.6065 51.9044 20.3771 51.7904 20.1159C50.609 20.978 49.8746 22.4787 49.7788 22.5426H49.683C49.5779 22.3244 49.5444 22.0785 49.5872 21.8401C49.941 21.036 50.4029 20.284 50.9602 19.605C50.7367 18.3278 51.9181 17.9127 52.3652 17.9127C52.5361 17.8877 52.7105 17.9004 52.876 17.9501C53.0415 17.9997 53.1941 18.0851 53.323 18.2001L53.2592 18.264Z"
              fill="#00467F"/>
        <path d="M55.5583 18.4555C55.6797 18.3405 55.8382 18.2725 56.0053 18.2639C55.8245 18.1829 55.6286 18.141 55.4305 18.141C55.2324 18.141 55.0366 18.1829 54.8558 18.2639C54.9401 18.1374 55.0486 18.0289 55.1751 17.9446C54.8268 17.9255 54.4843 18.0397 54.2172 18.2639C54.2784 18.1404 54.3655 18.0314 54.4726 17.9446C53.7382 17.9446 53.1954 18.8387 53.1954 18.8387C53.1592 18.661 53.0636 18.501 52.9243 18.3849C52.785 18.2689 52.6104 18.2037 52.4291 18.2001C51.9502 18.1362 50.9284 18.7748 51.3435 19.605C51.1519 19.9243 50.5452 20.4671 50.0663 21.5208C50.0642 21.542 50.0642 21.5634 50.0663 21.5847C50.4814 20.946 51.1519 20.0839 51.8544 19.6688C51.9182 19.6688 52.3014 20.7225 53.2274 20.7864C53.3232 20.9141 53.7702 21.6485 54.5684 21.5847C54.5574 21.9403 54.6004 22.2956 54.6961 22.6383C54.9845 22.4231 55.3089 22.261 55.654 22.1594C55.705 21.939 55.78 21.7249 55.8776 21.5208C56.2198 21.4697 56.5338 21.302 56.7666 21.046C56.9993 20.79 57.1365 20.4614 57.1548 20.1159C57.1548 19.2538 56.3884 18.3597 55.5583 18.4555ZM51.7267 19.4134C51.6867 19.4197 51.6458 19.4131 51.6098 19.3947C51.5738 19.3763 51.5446 19.347 51.5263 19.311C51.5079 19.2749 51.5015 19.234 51.5078 19.1941C51.5142 19.1541 51.533 19.1173 51.5616 19.0887C51.5902 19.0601 51.627 19.0413 51.667 19.0349C51.7069 19.0286 51.7478 19.035 51.7839 19.0534C51.8199 19.0717 51.8492 19.1009 51.8676 19.1369C51.886 19.1729 51.8926 19.2138 51.8863 19.2538C51.8863 19.3046 51.8661 19.3533 51.8302 19.3892C51.7943 19.4252 51.7455 19.4453 51.6947 19.4453L51.7267 19.4134Z"
              fill="white"/>
        <path d="M62.9021 18.264C63.101 18.0355 63.3462 17.8519 63.6214 17.7253C63.8967 17.5987 64.1956 17.532 64.4986 17.5296C66.8295 17.4338 68.0109 19.1261 67.947 20.531C67.8832 22.1275 66.6698 22.4468 66.5421 22.5426C66.545 22.8237 66.6221 23.0991 66.7656 23.3408C66.7942 23.3547 66.8166 23.3788 66.8284 23.4083C66.8402 23.4378 66.8406 23.4707 66.8295 23.5005C66.8112 23.5445 66.7898 23.5872 66.7656 23.6282C66.7568 23.6484 66.7523 23.6701 66.7523 23.6921C66.7523 23.714 66.7568 23.7358 66.7656 23.7559C66.7759 23.823 66.7727 23.8914 66.7562 23.9571C66.7398 24.0229 66.7104 24.0848 66.6698 24.1391C66.6517 24.3541 66.6733 24.5706 66.7337 24.7777C66.6698 24.8416 66.6698 24.8416 66.6379 24.7777C66.477 24.6349 66.3652 24.4449 66.3186 24.2349C66.0115 24.3825 65.7637 24.6302 65.6161 24.9373C65.6161 24.9373 65.5523 25.0012 65.5523 24.9373C65.5419 24.778 65.5715 24.6186 65.6384 24.4736C65.7053 24.3286 65.8074 24.2026 65.9354 24.1072C65.8259 24.0843 65.7128 24.0838 65.6031 24.1058C65.4933 24.1277 65.3892 24.1716 65.2968 24.2349C65.2968 24.2349 65.201 24.2349 65.2968 24.2349C65.2968 24.2349 65.3926 23.9156 65.9993 23.8198C66.0726 23.697 66.1366 23.5689 66.1909 23.4366C66.138 23.162 66.0293 22.9012 65.8716 22.6703C65.6148 22.7177 65.3736 22.8273 65.1691 22.9896C65.1567 23.0203 65.1567 23.0547 65.1691 23.0854V23.2131C65.1626 23.2616 65.1403 23.3066 65.1057 23.3412C65.071 23.3759 65.026 23.3982 64.9775 23.4047L64.2112 23.724C64.0611 23.8002 63.9301 23.9094 63.828 24.0433C63.7436 24.1528 63.6341 24.2404 63.5088 24.2987C63.4095 24.3251 63.3205 24.3807 63.2533 24.4584C63.1959 24.5284 63.1318 24.5926 63.0617 24.65C62.923 24.7602 62.8134 24.9027 62.7424 25.0651C62.7424 25.0651 62.7424 25.1289 62.7424 25.0651C62.7391 25.0012 62.7391 24.9373 62.7424 24.8735C62.7796 24.6925 62.8683 24.5262 62.9979 24.3945C62.9663 24.4015 62.9336 24.4015 62.9021 24.3945C62.5268 24.3622 62.1488 24.3946 61.7845 24.4903C61.7845 24.4903 61.7207 24.4903 61.7845 24.4903C61.7845 24.3945 61.9442 24.0433 62.7424 24.0433C62.6673 23.9683 62.5775 23.9097 62.4785 23.8712C62.3796 23.8327 62.2737 23.8152 62.1677 23.8198V23.6282C62.3033 23.584 62.4479 23.5755 62.5877 23.6035C62.7275 23.6314 62.8578 23.6949 62.9659 23.7879C63.1092 23.7273 63.2593 23.6844 63.413 23.6601C63.6534 23.4299 63.9094 23.2165 64.1793 23.0215C64.1696 22.958 64.1696 22.8935 64.1793 22.83C64.0056 22.5411 63.917 22.2091 63.9238 21.8721C63.4458 21.7591 63.0256 21.4752 62.7424 21.0738C62.4593 21.0167 62.1946 20.8907 61.9719 20.7069C61.7491 20.5231 61.5751 20.2872 61.4652 20.0201C60.2519 20.8822 59.4856 22.3829 59.4536 22.4468H59.3898C59.2737 22.2321 59.229 21.9861 59.2621 21.7443C59.6151 20.9399 60.0771 20.1878 60.6351 19.5092C60.3796 18.232 61.593 17.8489 62.008 17.8489C62.1736 17.8395 62.3392 17.866 62.4935 17.9266C62.6478 17.9873 62.7872 18.0806 62.9021 18.2001V18.264Z"
              fill="#00467F"/>
        <path d="M65.233 18.4555C65.343 18.3426 65.4908 18.2744 65.6481 18.2639C65.4717 18.1875 65.2815 18.148 65.0893 18.148C64.8971 18.148 64.7069 18.1875 64.5305 18.2639C64.6148 18.1374 64.7233 18.0289 64.8498 17.9446C64.5016 17.9255 64.1591 18.0397 63.8919 18.2639C63.9693 18.1319 64.0792 18.022 64.2112 17.9446C63.4449 17.9446 62.934 18.8387 62.934 18.8387C62.8967 18.6556 62.7964 18.4915 62.6505 18.3748C62.5047 18.2581 62.3225 18.1963 62.1358 18.2001C61.6888 18.1362 60.667 18.7748 61.0502 19.605C60.8905 19.9243 60.2838 20.4671 59.773 21.5208V21.5846C60.2519 20.946 60.9224 20.0839 61.593 19.6688C61.6568 19.7327 62.0719 20.7545 62.966 20.8183C63.0617 20.8822 63.5088 21.6485 64.307 21.5527C64.3048 21.9101 64.3587 22.2657 64.4667 22.6064C64.7554 22.3918 65.0796 22.2297 65.4246 22.1275C65.485 21.9055 65.5707 21.6912 65.68 21.4889C66.0047 21.4185 66.2968 21.2423 66.5106 20.9881C66.7244 20.7338 66.8478 20.4158 66.8614 20.0839C66.8614 19.2218 66.127 18.3278 65.2649 18.4236L65.233 18.4555ZM61.4014 19.4134C61.3614 19.4197 61.3206 19.4131 61.2846 19.3947C61.2486 19.3763 61.2193 19.347 61.201 19.311C61.1827 19.2749 61.1762 19.234 61.1826 19.1941C61.1889 19.1541 61.2077 19.1173 61.2363 19.0887C61.2649 19.0601 61.3018 19.0413 61.3417 19.0349C61.3816 19.0286 61.4225 19.035 61.4586 19.0534C61.4946 19.0717 61.5239 19.1009 61.5423 19.1369C61.5607 19.1729 61.5673 19.2138 61.561 19.2538C61.561 19.3046 61.5409 19.3533 61.5049 19.3892C61.469 19.4252 61.4203 19.4453 61.3695 19.4453L61.4014 19.4134ZM55.3028 40.7107L55.0792 40.8384L55.3028 40.9342C55.3931 40.9861 55.4641 41.0661 55.5049 41.1621C55.5458 41.258 55.5542 41.3646 55.5289 41.4657C55.5036 41.5669 55.446 41.657 55.3649 41.7224C55.2837 41.7878 55.1834 41.825 55.0792 41.8283H53.0677C52.9724 41.8165 52.8829 41.7763 52.8107 41.713C52.7385 41.6496 52.6871 41.5661 52.663 41.4732C52.6389 41.3802 52.6433 41.2822 52.6756 41.1918C52.7079 41.1014 52.7666 41.0228 52.8441 40.9662L53.0677 40.8384L52.8441 40.6788C52.3746 40.3536 51.8188 40.1758 51.2476 40.1679C50.6831 40.1568 50.1278 40.3123 49.6511 40.6149C49.0868 40.9928 48.4129 41.1725 47.7353 41.1258C46.7236 41.1457 45.7421 40.7804 44.9894 40.1041H44.3827C44.3464 40.1546 44.2984 40.1955 44.2428 40.2233C44.1871 40.2512 44.1256 40.265 44.0634 40.2637C43.9702 40.2637 43.8809 40.2267 43.815 40.1608C43.7492 40.095 43.7122 40.0056 43.7122 39.9125C43.7122 39.8193 43.7492 39.73 43.815 39.6641C43.8809 39.5982 43.9702 39.5612 44.0634 39.5612C44.1285 39.5634 44.192 39.5821 44.2479 39.6156C44.3037 39.6492 44.3501 39.6964 44.3827 39.7528V39.8167H45.0213V39.0504H44.4465L44.3827 39.1142C44.3431 39.1589 44.2936 39.1937 44.2382 39.2159C44.1827 39.2381 44.1229 39.247 44.0634 39.2419C43.9787 39.2419 43.8975 39.2083 43.8376 39.1484C43.7777 39.0885 43.7441 39.0073 43.7441 38.9226C43.7441 38.838 43.7777 38.7567 43.8376 38.6969C43.8975 38.637 43.9787 38.6033 44.0634 38.6033C44.1204 38.5942 44.1787 38.5981 44.234 38.6147C44.2893 38.6313 44.3401 38.6601 44.3827 38.6991L44.4465 38.763H45.0851L45.0213 38.0286H44.4465L44.3827 38.0925C44.3431 38.1372 44.2936 38.172 44.2382 38.1942C44.1827 38.2163 44.1229 38.2252 44.0634 38.2202C43.9702 38.2202 43.8809 38.1832 43.815 38.1173C43.7492 38.0514 43.7122 37.9621 43.7122 37.8689C43.7122 37.7758 43.7492 37.6865 43.815 37.6206C43.8809 37.5547 43.9702 37.5177 44.0634 37.5177C44.1256 37.5164 44.1871 37.5303 44.2428 37.5581C44.2984 37.5859 44.3464 37.6268 44.3827 37.6774L44.4465 37.7412H45.0213V37.0388H44.3827C44.3464 37.0893 44.2984 37.1302 44.2428 37.1581C44.1871 37.1859 44.1256 37.1997 44.0634 37.1984C43.9787 37.1984 43.8975 37.1648 43.8376 37.1049C43.7777 37.045 43.7441 36.9638 43.7441 36.8791C43.7441 36.7944 43.7777 36.7132 43.8376 36.6533C43.8975 36.5935 43.9787 36.5598 44.0634 36.5598C44.1204 36.5507 44.1787 36.5546 44.234 36.5712C44.2893 36.5878 44.3401 36.6166 44.3827 36.6556L44.4465 36.7195H45.0213V35.9851H44.4465L44.3827 36.0489C44.3401 36.0879 44.2893 36.1168 44.234 36.1334C44.1787 36.15 44.1204 36.1538 44.0634 36.1447C43.9702 36.1447 43.8809 36.1077 43.815 36.0419C43.7492 35.976 43.7122 35.8867 43.7122 35.7935C43.7122 35.7003 43.7492 35.611 43.815 35.5451C43.8809 35.4793 43.9702 35.4423 44.0634 35.4423C44.1285 35.4444 44.192 35.4631 44.2479 35.4967C44.3037 35.5302 44.3501 35.5774 44.3827 35.6339H45.0213V34.9314H44.4465L44.3827 34.9953C44.3431 35.0399 44.2936 35.0748 44.2382 35.0969C44.1827 35.1191 44.1229 35.128 44.0634 35.123C43.9702 35.123 43.8809 35.086 43.815 35.0201C43.7492 34.9542 43.7122 34.8649 43.7122 34.7717C43.7122 34.6786 43.7492 34.5893 43.815 34.5234C43.8809 34.4575 43.9702 34.4205 44.0634 34.4205C44.1256 34.4192 44.1871 34.4331 44.2428 34.4609C44.2984 34.4887 44.3464 34.5296 44.3827 34.5802H45.0213V33.8777H44.4465L44.3827 33.9735C44.3431 34.0182 44.2936 34.053 44.2382 34.0752C44.1827 34.0974 44.1229 34.1063 44.0634 34.1012C43.9787 34.1012 43.8975 34.0676 43.8376 34.0077C43.7777 33.9478 43.7441 33.8666 43.7441 33.7819C43.7441 33.6972 43.7777 33.616 43.8376 33.5561C43.8975 33.4963 43.9787 33.4626 44.0634 33.4626C44.1204 33.4535 44.1787 33.4574 44.234 33.474C44.2893 33.4905 44.3401 33.5194 44.3827 33.5584L44.4465 33.6223H44.9255L45.4044 33.3668V40.0721L45.5002 40.1679C46.8732 41.03 48.2782 41.1258 49.5234 40.4234C50.8645 39.689 52.7164 39.657 53.802 41.2216H53.2912C53.2488 41.2216 53.2082 41.2384 53.1783 41.2684C53.1483 41.2983 53.1315 41.3389 53.1315 41.3813C53.1315 41.4236 53.1483 41.4642 53.1783 41.4941C53.2082 41.5241 53.2488 41.5409 53.2912 41.5409H54.8877C54.93 41.5409 54.9706 41.5241 55.0006 41.4941C55.0305 41.4642 55.0473 41.4236 55.0473 41.3813C55.0473 41.3389 55.0305 41.2983 55.0006 41.2684C54.9706 41.2384 54.93 41.2216 54.8877 41.2216H54.3768C55.4943 39.6251 57.3463 39.7848 58.6554 40.4234C59.8049 40.9981 61.1459 40.9342 62.6467 40.1679L62.7744 40.0402V33.3349L63.2853 33.6542H63.7323L63.7961 33.5584C63.8357 33.5137 63.8852 33.4789 63.9407 33.4567C63.9961 33.4345 64.0559 33.4256 64.1154 33.4307C64.2001 33.4307 64.2813 33.4643 64.3412 33.5242C64.4011 33.5841 64.4347 33.6653 64.4347 33.75C64.4347 33.8347 64.4011 33.9159 64.3412 33.9758C64.2813 34.0356 64.2001 34.0693 64.1154 34.0693C64.0584 34.0784 64.0001 34.0745 63.9448 34.0579C63.8895 34.0413 63.8387 34.0125 63.7961 33.9735L63.7323 33.9096H63.1575V34.676H63.7961C63.8287 34.6195 63.8751 34.5723 63.931 34.5388C63.9868 34.5052 64.0503 34.4865 64.1154 34.4844C64.2086 34.4844 64.2979 34.5214 64.3638 34.5872C64.4297 34.6531 64.4667 34.7424 64.4667 34.8356C64.4667 34.9288 64.4297 35.0181 64.3638 35.084C64.2979 35.1498 64.2086 35.1868 64.1154 35.1868C64.0559 35.1919 63.9961 35.183 63.9407 35.1608C63.8852 35.1386 63.8357 35.1038 63.7961 35.0591L63.7323 34.9953H63.1575V35.7296H63.7323L63.7961 35.6658C63.8357 35.6211 63.8852 35.5863 63.9407 35.5641C63.9961 35.5419 64.0559 35.533 64.1154 35.5381C64.2128 35.5381 64.3062 35.5767 64.3751 35.6456C64.4439 35.7145 64.4826 35.8079 64.4826 35.9053C64.4826 36.0026 64.4439 36.096 64.3751 36.1649C64.3062 36.2338 64.2128 36.2725 64.1154 36.2725C64.0533 36.2738 63.9917 36.2599 63.9361 36.2321C63.8804 36.2043 63.8324 36.1633 63.7961 36.1128H63.1575V36.8153H63.7323L63.7961 36.7514C63.8357 36.7067 63.8852 36.6719 63.9407 36.6497C63.9961 36.6275 64.0559 36.6186 64.1154 36.6237C64.2001 36.6237 64.2813 36.6573 64.3412 36.7172C64.4011 36.7771 64.4347 36.8583 64.4347 36.943C64.4347 37.0277 64.4011 37.1089 64.3412 37.1688C64.2813 37.2286 64.2001 37.2623 64.1154 37.2623C64.0584 37.2714 64.0001 37.2675 63.9448 37.2509C63.8895 37.2343 63.8387 37.2055 63.7961 37.1665H63.1575V37.9009H63.7323L63.7961 37.837C63.8357 37.7923 63.8852 37.7575 63.9407 37.7353C63.9961 37.7132 64.0559 37.7042 64.1154 37.7093C64.2086 37.7093 64.2979 37.7463 64.3638 37.8122C64.4297 37.878 64.4667 37.9674 64.4667 38.0605C64.4667 38.1537 64.4297 38.243 64.3638 38.3089C64.2979 38.3748 64.2086 38.4118 64.1154 38.4118C64.0559 38.4168 63.9961 38.4079 63.9407 38.3857C63.8852 38.3636 63.8357 38.3287 63.7961 38.284V38.2202H63.1575V38.9546H63.7961V38.8907C63.8357 38.846 63.8852 38.8112 63.9407 38.789C63.9961 38.7668 64.0559 38.7579 64.1154 38.763C64.2001 38.763 64.2813 38.7966 64.3412 38.8565C64.4011 38.9164 64.4347 38.9976 64.4347 39.0823C64.4347 39.167 64.4011 39.2482 64.3412 39.3081C64.2813 39.368 64.2001 39.4016 64.1154 39.4016C64.0559 39.4067 63.9961 39.3977 63.9407 39.3756C63.8852 39.3534 63.8357 39.3186 63.7961 39.2739H63.1575V39.9763H63.7961V39.9125C63.8357 39.8678 63.8852 39.833 63.9407 39.8108C63.9961 39.7886 64.0559 39.7797 64.1154 39.7848C64.2001 39.7848 64.2813 39.8184 64.3412 39.8783C64.4011 39.9382 64.4347 40.0194 64.4347 40.1041C64.4347 40.1887 64.4011 40.27 64.3412 40.3298C64.2813 40.3897 64.2001 40.4234 64.1154 40.4234C64.0584 40.4325 64.0001 40.4286 63.9448 40.412C63.8895 40.3954 63.8387 40.3666 63.7961 40.3276V40.2318H63.2533L63.1895 40.2956C62.4174 40.9538 61.4252 41.2959 60.4116 41.2535C59.7378 41.3072 59.065 41.139 58.4958 40.7746C58.0299 40.4722 57.4865 40.3113 56.9312 40.3113C56.3759 40.3113 55.8324 40.4722 55.3666 40.7746L55.3028 40.7107Z"
              fill="white"/>
        <path d="M46.1388 39.7848C47.1925 40.3276 48.0546 40.4872 49.5234 39.689C50.2305 39.3135 51.0387 39.173 51.831 39.2878C52.6233 39.4026 53.3584 39.7668 53.9298 40.3276V40.8385C52.7164 39.242 50.7368 39.3058 49.3638 40.0722C48.2462 40.7108 47.0009 40.6469 45.7557 39.8806V33.1753L46.075 32.9837V39.689L46.1388 39.7848Z"
              fill="white"/>
        <path d="M46.3943 39.5293V32.824C47.4631 33.096 48.5935 32.983 49.5873 32.5047C51.0241 31.8661 52.461 32.0896 53.8978 33.0475V39.9125C53.1532 39.2939 52.2157 38.9551 51.2476 38.9546C50.6033 38.9519 49.9679 39.1053 49.3957 39.4016C48.0227 40.1041 47.3203 40.0402 46.3943 39.5293ZM58.5596 39.689C60.0923 40.4872 60.9224 40.3276 61.9761 39.7848H62.0719V32.9837L62.3912 33.1753V39.8806C61.0502 40.5192 59.8368 40.6149 58.7831 40.1041C57.4101 39.4016 55.4943 39.21 54.2491 40.8065V40.2956C54.818 39.7419 55.5472 39.382 56.3328 39.2674C57.1183 39.1527 57.92 39.2891 58.6235 39.657L58.5596 39.689Z"
              fill="white"/>
        <path d="M54.2172 39.9125V33.0795C55.6221 32.1216 57.0909 31.8981 58.4958 32.5047C59.4896 32.983 60.62 33.096 61.6888 32.824V39.5293C60.7948 40.0083 60.0923 40.1041 58.7193 39.4016C57.9995 39.022 57.1822 38.8677 56.3736 38.9588C55.565 39.05 54.8025 39.3822 54.1853 39.9125H54.2172ZM61.8165 31.6107L59.9965 30.2377L58.1126 31.6107L58.8151 29.4394L56.8993 28.0665H59.2302L59.9326 25.8314L60.5712 28.0665H62.9021L60.9863 29.4075L61.7207 31.5788L61.8165 31.6107ZM49.9386 31.6107L48.1186 30.2696L46.2985 31.6107L47.001 29.4394L45.0852 28.0665H47.4161L48.1186 25.8314L48.821 28.0665H51.12L49.2042 29.4075L49.9066 31.6426L49.9386 31.6107ZM52.2375 48.7571L52.94 46.5858L51.0242 45.1809H53.3551L54.0895 42.9458L54.7919 45.1809H57.1228L55.207 46.5539L55.9095 48.6932L54.0895 47.3202L52.2695 48.6932"
              fill="white"/>
    </g>
    <defs>
        <clipPath id="clip0">
            <rect width="108" height="103.705" fill="white"/>
        </clipPath>
    </defs>
</svg>
