<?xml version="1.0" encoding="UTF-8"?>
<svg width="101.99" height="103.7" fill="none" version="1.1" viewBox="0 0 101.99 103.7" xmlns="http://www.w3.org/2000/svg" xmlns:xlink="http://www.w3.org/1999/xlink">
 <g transform="scale(.94446 1)">
  <path d="m0 20.357 20.509-20.357h87.478v84.094l-19.707 19.615h-88.216z" fill="#491e79"/>
 </g>

<g transform="translate(-3.9998 3.3735)">
  <g id="g31801">
   <g transform="translate(7.2258)">
    <g id="g19174">
     <g transform="matrix(.73636 0 0 .26007 7.9869 27.547)" fill="#fff">
      <path d="m0 15.454 5.6457-15.454h102.34v88.223l-6.2637 15.486h-101.66z" fill="#fff"/>
     </g>
     <g transform="translate(-1.2171 -.391)">
      <g id="g18944">
       <path d="m45.691 34.726h-1.2303v-0.88746h1.1776v-0.53248h-1.1776v-0.81648h1.1776v-0.53248h-1.6872v3.2836h1.7576v-0.49696zm14.887-2.2364v-0.53248h-1.6872v3.2836h1.7576v-0.49696h-1.2303v-0.88746h1.1248v-0.53248h-1.1424v-0.81648h1.1952zm-19.509 1.3667h1.494v1.3844h0.52727v-3.2481h-0.52727v1.3667h-1.494v-1.3667h-0.52727v3.2304h0.52727zm7.7333 1.4199c0.18242 0.01645 0.36621-0.0068 0.539-0.06799 0.17278-0.06121 0.3306-0.15909 0.46287-0.287 0.22546-0.27244 0.33874-0.62192 0.31634-0.97624v-1.9524h-0.52727v1.8637c0 0.35499-0.03517 0.53248-0.14058 0.65672-0.08224 0.08304-0.18154 0.14681-0.29091 0.18666-0.10932 0.03991-0.22607 0.05493-0.34183 0.04408-0.10034-0.0011-0.19937-0.02373-0.2903-0.06659-0.09093-0.04286-0.17174-0.10489-0.23697-0.18194-0.14064-0.14197-0.17576-0.28394-0.17576-0.6212v-1.917h-0.49215v2.0235c-0.01233 0.17849 0.01261 0.3576 0.07316 0.52575 0.06055 0.16821 0.15539 0.32163 0.27836 0.45043 0.23999 0.21902 0.55567 0.3338 0.87878 0.31952zm4.7806-0.05325v-3.2481h-0.4921v2.3074l-1.8279-2.3074h-0.40419v3.2481h0.4921v-2.3074l1.7927 2.3074zm4.6576-3.2481h-0.52727l-0.79093 2.1299-0.80849-2.1299h-0.52727l1.2303 3.2836h0.17576zm5.0266 3.2481h0.61518l-0.07029-0.10651-0.35151-0.58573-0.3164-0.49696c-0.07403-0.11746-0.1626-0.2248-0.26361-0.31952 0.138-0.07593 0.25221-0.18928 0.32988-0.32725 0.07761-0.13797 0.11554-0.29512 0.10948-0.45371 0.0084-0.13046-0.01084-0.26121-0.05626-0.38361-0.04547-0.12235-0.11614-0.23364-0.20735-0.32636-0.1975-0.16304-0.44839-0.24537-0.70303-0.23075h-0.77332v3.2304h0.52727v-1.349h0.10541c0.17576 0 0.3164 0.05325 0.70303 0.70997zm-0.4921-2.3074c0.0033 0.11029-0.03435 0.21791-0.10546 0.30173-0.05581 0.05325-0.12247 0.09356-0.19535 0.11807-0.07288 0.02452-0.15016 0.03268-0.22645 0.0239h-0.17576v-0.88746h0.17576c0.35151 0 0.52727 0.12424 0.52727 0.40824zm2.4079-0.42603c0.11862 0.0086 0.23427 0.04113 0.34001 0.09606 0.10574 0.05493 0.19932 0.13097 0.27511 0.22346l0.07034 0.07099h0.03512v-0.65672c-0.19172-0.14842-0.42626-0.22947-0.66785-0.23075-0.12214-0.0058-0.24418 0.01324-0.35889 0.05587-0.11471 0.04269-0.21979 0.10817-0.30902 0.19261-0.08306 0.08683-0.14774 0.18983-0.19007 0.30273-0.04227 0.11295-0.06132 0.23341-0.05598 0.35398 0 0.46149 0.3164 0.70997 0.63274 0.92298l0.07029 0.03552 0.17576 0.10645c0.0633 0.05425 0.12203 0.11362 0.17576 0.17749 0.05191 0.04381 0.09429 0.09795 0.12451 0.15904 0.03022 0.06104 0.04767 0.1278 0.05124 0.19595-0.0038 0.05019-0.01839 0.099-0.04244 0.14314-0.02405 0.04408-0.05714 0.08255-0.09704 0.11279-0.03991 0.03019-0.0857 0.05147-0.13436 0.06248-0.04871 0.01095-0.09914 0.01133-0.14796 0.0011-0.14427-0.0098-0.28392-0.05547-0.40656-0.13291-0.12264-0.07738-0.22447-0.18416-0.29647-0.31085l-0.07029-0.08872v-0.03552 0.79874c0.22464 0.19573 0.51175 0.3029 0.80849 0.30173 0.11526 0.0013 0.22954-0.02156 0.33544-0.06743 0.10596-0.0458 0.20124-0.11356 0.27968-0.19884 0.15088-0.17766 0.23212-0.40496 0.22849-0.63898 0-0.53248-0.31634-0.79869-0.63274-1.0117l-0.21086-0.14194c-0.06149-0.04358-0.12016-0.09105-0.17576-0.14197-0.0568-0.03919-0.10271-0.09238-0.13348-0.15448-0.03077-0.06215-0.0453-0.13113-0.04227-0.20051 0.01706-0.08789 0.06644-0.16598 0.13816-0.21863 0.07167-0.05263 0.16046-0.07604 0.24847-0.06537zm6.6436 2.7334h0.49215v-1.6862l1.1073-1.5619h-0.61518l-0.70303 1.065-0.75576-1.065h-0.61512l1.0897 1.5619v1.7039zm-17.4-3.2481h0.52727v3.2481h-0.52727zm12.479 0h0.49215v3.2481h-0.52727zm-28.244 3.2481h0.52727v-2.7334h0.96669v-0.53248h-2.4606v0.53248h0.96664zm30.353 0h0.52727v-2.7334h0.98425v-0.53248h-2.4606v0.53248h0.96669v2.7334zm9.6666-1.4732h1.0545v-0.53248h-1.0545v-0.70997h1.0545v-0.53248h-1.5818v3.2481h0.52727zm-2.6891 1.5264c0.21478 0.0061 0.4283-0.03525 0.62558-0.12107 0.19733-0.08583 0.3737-0.21412 0.51687-0.37594 0.26576-0.32458 0.41118-0.73254 0.41118-1.1537 0-0.42119-0.14543-0.82915-0.41118-1.1537-0.1446-0.1547-0.31893-0.27794-0.51235-0.36221-0.19343-0.08421-0.40182-0.12768-0.61248-0.12768-0.21065 0-0.41911 0.04348-0.61253 0.12768-0.19337 0.08427-0.36775 0.20751-0.5123 0.36221-0.2723 0.32152-0.42197 0.73065-0.42197 1.1537 0 0.42302 0.14966 0.83221 0.42197 1.1537 0.13921 0.15726 0.3099 0.28283 0.5008 0.36849 0.19089 0.08567 0.39758 0.12946 0.60642 0.12852zm-0.70297-2.4849c0.09132-0.09511 0.20058-0.17077 0.3213-0.22258 0.12077-0.05181 0.25051-0.07877 0.38168-0.07921 0.59762 0 1.0546 0.47928 1.0546 1.136 0.0011 0.3029-0.1118 0.5949-0.3164 0.81642-0.09385 0.10334-0.2079 0.18578-0.335 0.2422-0.12704 0.05642-0.26438 0.08555-0.4032 0.08555-0.13877 0-0.2761-0.02914-0.40314-0.08555-0.1271-0.05642-0.24115-0.13886-0.335-0.2422-0.19535-0.22624-0.30296-0.51625-0.30296-0.81642 0-0.30017 0.10761-0.59023 0.30296-0.81648zm-9.1394 4.739h-0.61518l-2.1091 5.5733h0.87878l0.59756-1.5974h1.9333l0.61518 1.5974h0.9139zm-0.87878 3.1061c0-0.05325 0.52722-1.4732 0.56239-1.5974 0 0.10651 0.59756 1.5442 0.61518 1.5974h-1.2303zm-2.6364 1.5797h-2.1618v-4.6858h-0.87878v5.5555h3.0405v-0.88746zm-23.464-0.70997h1.9333l0.61518 1.5974h0.87878l-2.1794-5.591h-0.61512l-2.1091 5.5733h0.87878l0.59756-1.5974zm0.93152-2.4494 0.61512 1.5974h-1.1951c0-0.07098 0.52727-1.5087 0.58-1.5974zm12.953 3.6209v-1.1005h-0.03517l-0.12302 0.10651c-0.46529 0.36077-1.0307 0.56555-1.6169 0.58573-0.2411 0.0041-0.48059-0.04092-0.70407-0.13241-0.22348-0.09144-0.42638-0.22758-0.59652-0.40007-0.17724-0.18922-0.31518-0.4123-0.40573-0.65616-0.09055-0.24386-0.13189-0.50357-0.12154-0.76378-0.0044-0.51224 0.18429-1.007 0.52727-1.3845 0.16585-0.1806 0.36715-0.32441 0.59107-0.42219 0.22392-0.09778 0.46557-0.14742 0.70952-0.14575 0.56789 0.01518 1.1184 0.20051 1.5818 0.53248l0.12302 0.07099 0.03512 0.03552-0.05268-1.065c-0.70303-0.35499-1.1952-0.47928-1.7049-0.47928-1.5818 0-2.7066 1.2424-2.7066 2.9287 0.01013 0.65694 0.23229 1.2926 0.63274 1.8104 0.2428 0.30862 0.55342 0.55599 0.9073 0.72231 0.35388 0.16638 0.74128 0.2472 1.1315 0.23614 0.64754 0.0053 1.2826-0.17977 1.8279-0.53248zm3.0054-2.4849 2.1618-2.6624h-1.1073l-1.863 2.3074v-2.3074h-0.87878v5.5555h0.87878v-2.4849l2.2848 2.4849h1.2303zm23.323-1.7395c-0.24341-0.28945-0.54852-0.51964-0.89238-0.67334-0.34392-0.15365-0.71778-0.22686-1.0936-0.21413h-1.9333v5.5023h1.9333c0.36274 0.01017 0.72339-0.05915 1.0572-0.20312 0.33373-0.14403 0.63262-0.35932 0.87614-0.63109 0.45472-0.53298 0.70424-1.2134 0.70303-1.9169 0.0017-0.67523-0.22128-1.3314-0.63274-1.8637zm-2.0739 3.7629h-1.0018v-3.7983h0.96664c0.25849-0.01801 0.51775 0.02018 0.76027 0.11207 0.24258 0.09183 0.46281 0.23519 0.64578 0.42041 0.3132 0.38256 0.4703 0.87129 0.43942 1.3667 0 0.70997-0.35151 1.8992-1.8103 1.8992zm-31.988 0.95845c0.70303 0 1.2655-0.21301 1.6521-0.63898 0.38669-0.42597 0.56244-0.95845 0.56244-1.6329v-3.3724h-0.87878v3.2303c0 0.568-0.08791 0.88746-0.28122 1.1005-0.13629 0.14069-0.30109 0.25004-0.48307 0.32052-0.18203 0.07043-0.37694 0.10033-0.57147 0.08772-0.18231 0.0058-0.36362-0.02941-0.53085-0.10312-0.16717-0.07366-0.31601-0.18394-0.43579-0.32286-0.17576-0.23074-0.26366-0.46149-0.26366-1.0295v-3.2836h-0.87878v3.4433c0 0.70997 0.22849 1.2779 0.65029 1.6684 0.39715 0.35398 0.91165 0.54404 1.4412 0.53248zm27.857-1.6684-3.1109-3.9758h-0.66785v5.5555h0.82605v-3.9581l3.0406 3.9581h0.70303v-5.5378h-0.80849v3.9936zm-33.745 7.7919-1.3358-1.5974h-0.35151v2.2719h0.4218v-1.5974l1.3358 1.5974h0.35151v-2.2364h-0.40425v1.5974zm3.1284-0.30173h0.96664v-0.35499h-0.96664v-0.58573h1.0194v-0.35499h-1.4588v2.2719h1.4764v-0.31952h-1.0545v-0.63893zm5.5363 0.12424-0.59756-1.4199h-0.35151l-0.59756 1.4199-0.56244-1.4199h-0.43936l0.91396 2.3074h0.14058l0.70303-1.6862 0.70303 1.6862h0.17576l0.91396-2.3074h-0.43942zm7.5575-1.4022h-1.9684v0.35499h1.2303l-1.3182 1.8992h2.074v-0.31952h-1.3006l1.3006-1.9169zm2.5485 1.2779h0.96664v-0.35499h-0.96664v-0.58573h1.0194v-0.35499h-1.4588v2.2719h1.4764v-0.31952h-1.0545v-0.63893zm3.9018-1.2779-0.91396 2.2542h0.45698l0.22849-0.53248h1.0018l0.22849 0.53248h0.45692l-1.0194-2.2364h-0.43936zm-0.10546 1.3844 0.35151-0.88746 0.38663 0.88746h-0.70303zm4.0248-1.3844h-0.43936v2.2364h1.5115v-0.31952h-1.0545v-1.9169zm3.8667 0-0.94908 2.2542h0.45698l0.21093-0.53248h1.0018l0.24605 0.53248h0.45698l-1.0018-2.2364h-0.43942zm-0.14058 1.3844 0.35151-0.88746 0.35151 0.88746zm5.3079 0.19523-1.3358-1.5974h-0.38669v2.2719h0.42181v-1.5974l1.3358 1.5974h0.38669v-2.2364h-0.4218v1.5974zm4.2357-1.4377c-0.19068-0.09689-0.40177-0.14564-0.61518-0.14197h-0.93146v2.2364h0.9139c0.2117 6e-3 0.42197-0.03658 0.61518-0.1243 0.1746-0.08677 0.32096-0.2223 0.4218-0.39045 0.096-0.17338 0.14449-0.36938 0.14058-0.568-0.0044-0.20779-0.06523-0.41041-0.17576-0.58573-0.09495-0.17104-0.23482-0.31229-0.40425-0.40824zm-0.08791 1.562c-0.15242 0.14292-0.35449 0.21941-0.56239 0.21296h-0.45698v-1.5974h0.43942c0.10987-0.0045 0.21957 0.01345 0.32234 0.05314 0.10271 0.03969 0.1964 0.10012 0.27522 0.1776 0.14328 0.15726 0.22276 0.36316 0.22276 0.57684 0 0.21374-0.07948 0.41964-0.22276 0.57689zm-41.479-4.0823h42.252v0.23075h-42.252z" fill="#00467f" stroke-width=".55316"/>
       <g transform="matrix(.50278 0 0 .50278 -2.1439 24.139)">
       
        <g id="g15954">
         <path d="m38.508 15.55 0.14126 15.828c-0.02056 3.7039 30.559 3.5533 30.579-0.11858l0.08684-15.646z" fill="#fff"/>
         <path d="m38.54 31.687c0 3.7039 2.7459 14.368 15.326 19.669l0.1915 0.0958 0.1916-0.0639c12.548-5.2365 15.326-15.965 15.326-19.637" fill="#00467f"/>
         <path d="m41.892 25.863-0.0958-0.0638c-0.726-0.4251-1.5535-0.6457-2.3948-0.6386-0.0532-0.0033-0.1065-0.0033-0.1596 0h-0.0639v5.9709c0 0.1277 0.4151 12.932 14.847 18.998 14.464-6.0667 14.848-18.839 14.848-18.998v-5.9071h-0.1916c-0.8304-0.0013-1.6461 0.2191-2.3628 0.6386-0.7669 0.4428-1.6369 0.6759-2.5225 0.6759-0.8855 0-1.7555-0.2331-2.5224-0.6759-0.7184-0.4147-1.5333-0.6331-2.3629-0.6331-0.8295 0-1.6444 0.2184-2.3628 0.6331-0.7669 0.4428-1.6369 0.6759-2.5225 0.6759-0.8855 0-1.7555-0.2331-2.5224-0.6759v-0.0638c-0.7184-0.4148-1.5333-0.6331-2.3628-0.6331-0.8296 0-1.6445 0.2183-2.3629 0.6331h-0.0638c-0.7384 0.4179-1.5702 0.6428-2.4185 0.6539-0.8483 0.0112-1.6858-0.1918-2.4349-0.5901z" fill="#00467f"/>
         <path d="m43.552 18.264c0.1989-0.2285 0.4441-0.4121 0.7193-0.5387 0.2753-0.1266 0.5742-0.1933 0.8772-0.1957 2.2989-0.0958 3.4484 1.5965 3.4165 3.0014 0 1.5965-1.2772 1.9158-1.4049 2.0116 0.0125 0.2841 0.1007 0.5597 0.2554 0.7982 0.0182 0.0227 0.028 0.0508 0.028 0.0799 0 0.029-0.0098 0.0571-0.028 0.0798 0.0025 0.0425 0.0025 0.0852 0 0.1277-0.0088 0.0202-0.0133 0.0419-0.0133 0.0639 0 0.0219 0.0045 0.0437 0.0133 0.0638 0.0059 0.0692-0.0024 0.1389-0.0244 0.2048-0.0219 0.0658-0.0571 0.1266-0.1033 0.1784-0.0398 0.211-0.0398 0.4276 0 0.6386v0c-0.1593-0.1442-0.2707-0.3336-0.3193-0.5428-0.3071 0.1476-0.5549 0.3953-0.7025 0.7024 0 0-0.0638 0.0639-0.0958 0-0.0068-0.1622 0.0277-0.3235 0.1003-0.4687s0.181-0.2696 0.3148-0.3614c-0.1095-0.0229-0.2226-0.0234-0.3323-0.0014-0.1098 0.0219-0.2139 0.0658-0.3063 0.1291 0 0-0.0638 0 0 0 0 0 0.1278-0.3193 0.7025-0.4151 0.0735-0.1227 0.1376-0.2508 0.1916-0.3832-0.035-0.2695-0.1217-0.5297-0.2555-0.7663-0.2791 0.037-0.5435 0.1472-0.7663 0.3193-0.0174 0.0099-0.0322 0.0237-0.0433 0.0403s-0.0181 0.0357-0.0205 0.0555v0.1277c-0.0046 0.0442-0.0222 0.086-0.0507 0.1201-0.0284 0.0342-0.0664 0.059-0.109 0.0715l-0.7663 0.3193c-0.1502 0.0762-0.2811 0.1854-0.3832 0.3193-0.0834 0.1104-0.1932 0.1982-0.3193 0.2554-0.0877 0.0319-0.165 0.0871-0.2235 0.1597-0.0574 0.07-0.1215 0.1342-0.1916 0.1916-0.1387 0.1102-0.2483 0.2527-0.3193 0.4151v0-0.1916c0.0404-0.1798 0.1287-0.3453 0.2555-0.479-0.0212 0.0031-0.0427 0.0031-0.0639 0-0.3752-0.0323-0.7533 1e-4 -1.1175 0.0958 0 0-0.0639 0 0 0 0-0.0958 0.1596-0.447 0.9579-0.447-0.0714-0.0711-0.1561-0.1274-0.2492-0.1658-0.0931-0.0383-0.1929-0.058-0.2936-0.0577v-0.1916c0.1355-0.0442 0.2802-0.0527 0.42-0.0247 0.1398 0.0279 0.2701 0.0914 0.3782 0.1844 0.1433-0.0606 0.2934-0.1035 0.447-0.1278 0.2405-0.2302 0.4965-0.4435 0.7663-0.6386-0.0096-0.0635-0.0096-0.128 0-0.1915-0.1979-0.2812-0.3089-0.6143-0.3193-0.9579-0.4663-0.12-0.8742-0.4032-1.1494-0.7983-0.2832-0.0571-0.5478-0.1831-0.7706-0.3669s-0.3968-0.4197-0.5066-0.6868c-1.2134 0.8621-1.9158 2.3628-2.0116 2.4267h-0.0639c-0.1073-0.2175-0.1409-0.4641-0.0958-0.7025 0.3438-0.8023 0.795-1.5542 1.3411-2.2351-0.2235-1.2772 0.9579-1.6603 1.4368-1.6603 0.1647 0.0052 0.3265 0.0449 0.475 0.1163 0.1485 0.0715 0.2803 0.1733 0.3871 0.2988z" fill="#00467f"/>
         <path d="m45.852 18.456c0.1099-0.1129 0.2578-0.1811 0.415-0.1916-0.1807-0.081-0.3766-0.1229-0.5747-0.1229s-0.394 0.0419-0.5747 0.1229c0.0842-0.1265 0.1928-0.235 0.3193-0.3193-0.3483-0.0191-0.6908 0.0951-0.9579 0.3193 0.0518-0.1206 0.1279-0.2293 0.2235-0.3193-0.6386 0-1.2772 0.8941-1.2772 0.8941-0.0333-0.1676-0.1195-0.3202-0.246-0.4351-0.1265-0.115-0.2865-0.1863-0.4565-0.2035-0.4789-0.0639-1.5007 0.5747-1.0856 1.4049-0.1916 0.3193-0.7983 0.8621-1.2772 1.9158v0.0638c0.4151-0.6386 1.0856-1.5007 1.7881-1.9158 0.0638 0.0639 0.447 1.0857 1.373 1.1495 0.0958 0.0639 0.5428 0.8302 1.341 0.7344-7e-4 0.3573 0.0532 0.7126 0.1597 1.0537 0.2887-0.2146 0.6129-0.3767 0.9579-0.4789 0.0504-0.2206 0.1254-0.4348 0.2235-0.6386 0.3305-0.0642 0.6299-0.2376 0.8499-0.4924 0.2201-0.2548 0.3481-0.5762 0.3634-0.9126 0-0.8621-0.7344-1.7561-1.5965-1.6603zm-3.8316 0.9579c-0.04 0.0063-0.0809-3e-4 -0.1169-0.0187s-0.0652-0.0477-0.0835-0.0837c-0.0184-0.0361-0.0248-0.077-0.0185-0.1169 0.0064-0.04 0.0252-0.0768 0.0538-0.1054 0.0285-0.0286 0.0654-0.0474 0.1054-0.0538 0.0399-0.0063 0.0808 1e-4 0.1169 0.0185 0.036 0.0183 0.0653 0.0475 0.0837 0.0835s0.025 0.0769 0.0187 0.1169c6e-4 0.0457-0.0151 0.0901-0.0444 0.1253-0.0293 0.0351-0.0701 0.0586-0.1152 0.0662z" fill="#fff"/>
         <path d="m53.259 18.264c0.1989-0.2285 0.4441-0.4121 0.7193-0.5387 0.2753-0.1266 0.5743-0.1933 0.8772-0.1957 2.2989-0.0958 3.5123 1.5965 3.4165 3.0014 0 1.5965-1.2772 1.9158-1.4049 2.0116 0.0314 0.2903 0.1419 0.5664 0.3193 0.7982 0.0181 0.0227 0.028 0.0508 0.028 0.0799 0 0.029-0.0099 0.0571-0.028 0.0798-0.0286 0.045-0.0606 0.0877-0.0958 0.1277-0.0088 0.0202-0.0133 0.0419-0.0133 0.0639 0 0.0219 0.0045 0.0437 0.0133 0.0638 0.03 0.1312 7e-3 0.2689-0.0639 0.3832-0.0397 0.211-0.0397 0.4276 0 0.6386v0c-0.1609-0.1428-0.2726-0.3328-0.3193-0.5428-0.326 0.1472-0.5872 0.4083-0.7344 0.7344 0 0-0.0958 0.0638-0.0958 0-0.0103-0.1594 0.0193-0.3188 0.0862-0.4638s0.169-0.2709 0.297-0.3664c-0.1096-0.0229-0.2226-0.0233-0.3323-0.0014-0.1098 0.022-0.214 0.0659-0.3063 0.1291 0 0-0.0639 0.0639 0 0 0 0 0.1277-0.3193 0.7025-0.4151 0.0704-0.1023 0.1344-0.2089 0.1915-0.3193-0.0299-0.2807-0.1169-0.5523-0.2554-0.7982-0.2731 0.018-0.537 0.106-0.7663 0.2554-0.0222 0.0125-0.0401 0.0314-0.0515 0.0541-0.0113 0.0228-0.0157 0.0484-0.0124 0.0736v0.1278c-0.01 0.0383-0.0301 0.0734-0.0582 0.1014-0.028 0.0281-0.063 0.0482-0.1014 0.0582l-0.7344 0.3193c-0.1508 0.0753-0.282 0.1846-0.3832 0.3193-0.0749 0.1339-0.1854 0.2444-0.3193 0.3193-0.0922 0.0082-0.1805 0.0413-0.2554 0.0958-0.0588 0.059-0.1229 0.1125-0.1916 0.1596-0.1198 0.1264-0.2074 0.2797-0.2554 0.4471v0-0.1916c0.0257-0.1877 0.1031-0.3646 0.2235-0.5109-0.0316 0.0069-0.0643 0.0069-0.0958 0-0.3771-0.0219-0.7551 0.0213-1.1176 0.1277 0-0.1277 0.1597-0.447 0.9579-0.4789-0.0713-0.0711-0.156-0.1275-0.2491-0.1658-0.0932-0.0384-0.1929-0.058-0.2937-0.0577-0.0638 0 0 0 0 0 0.1234-0.052 0.2576-0.0733 0.391-0.0622 0.1335 0.0111 0.2622 0.0544 0.3753 0.126 0.1331-0.0581 0.2724-0.101 0.4151-0.1277 0.2514-0.2307 0.5181-0.444 0.7983-0.6386-0.0067-0.053-0.0067-0.1066 0-0.1596-0.2083-0.3-0.3197-0.6566-0.3193-1.0218-0.4616-0.1117-0.8688-0.3832-1.1495-0.7663-0.2798-0.0539-0.5423-0.1751-0.7648-0.3531-0.2225-0.1781-0.3984-0.4075-0.5124-0.6687-1.1814 0.8621-1.9158 2.3628-2.0116 2.4267h-0.0958c-0.1051-0.2182-0.1386-0.4641-0.0958-0.7025 0.3538-0.8041 0.8157-1.5561 1.373-2.2351-0.2235-1.2772 0.9579-1.6923 1.405-1.6923 0.1709-0.025 0.3453-0.0123 0.5108 0.0374 0.1655 0.0496 0.3181 0.135 0.447 0.25z" fill="#00467f"/>
         <path d="m55.558 18.456c0.1214-0.115 0.2799-0.183 0.447-0.1916-0.1808-0.081-0.3767-0.1229-0.5748-0.1229s-0.3939 0.0419-0.5747 0.1229c0.0843-0.1265 0.1928-0.235 0.3193-0.3193-0.3483-0.0191-0.6908 0.0951-0.9579 0.3193 0.0612-0.1235 0.1483-0.2325 0.2554-0.3193-0.7344 0-1.2772 0.8941-1.2772 0.8941-0.0362-0.1777-0.1318-0.3377-0.2711-0.4538-0.1393-0.116-0.3139-0.1812-0.4952-0.1848-0.4789-0.0639-1.5007 0.5747-1.0856 1.4049-0.1916 0.3193-0.7983 0.8621-1.2772 1.9158-0.0021 0.0212-0.0021 0.0426 0 0.0639 0.4151-0.6387 1.0856-1.5008 1.7881-1.9159 0.0638 0 0.447 1.0537 1.373 1.1176 0.0958 0.1277 0.5428 0.8621 1.341 0.7983-0.011 0.3556 0.032 0.7109 0.1277 1.0536 0.2884-0.2152 0.6128-0.3773 0.9579-0.4789 0.051-0.2204 0.126-0.4345 0.2236-0.6386 0.3422-0.0511 0.6562-0.2188 0.889-0.4748 0.2327-0.256 0.3699-0.5846 0.3882-0.9301 0-0.8621-0.7664-1.7562-1.5965-1.6604zm-3.8316 0.9579c-0.04 0.0063-0.0809-3e-4 -0.1169-0.0187s-0.0652-0.0477-0.0835-0.0837c-0.0184-0.0361-0.0248-0.077-0.0185-0.1169 0.0064-0.04 0.0252-0.0768 0.0538-0.1054s0.0654-0.0474 0.1054-0.0538c0.0399-0.0063 0.0808 1e-4 0.1169 0.0185 0.036 0.0183 0.0653 0.0475 0.0837 0.0835s0.025 0.0769 0.0187 0.1169c0 0.0508-0.0202 0.0995-0.0561 0.1354-0.0359 0.036-0.0847 0.0561-0.1355 0.0561z" fill="#fff"/>
         <path d="m62.902 18.264c0.1989-0.2285 0.4441-0.4121 0.7193-0.5387 0.2753-0.1266 0.5742-0.1933 0.8772-0.1957 2.3309-0.0958 3.5123 1.5965 3.4484 3.0014-0.0638 1.5965-1.2772 1.9158-1.4049 2.0116 0.0029 0.2811 0.08 0.5565 0.2235 0.7982 0.0286 0.0139 0.051 0.038 0.0628 0.0675s0.0122 0.0624 0.0011 0.0922c-0.0183 0.044-0.0397 0.0867-0.0639 0.1277-0.0088 0.0202-0.0133 0.0419-0.0133 0.0639 0 0.0219 0.0045 0.0437 0.0133 0.0638 0.0103 0.0671 0.0071 0.1355-0.0094 0.2012-0.0164 0.0658-0.0458 0.1277-0.0864 0.182-0.0181 0.215 0.0035 0.4315 0.0639 0.6386-0.0639 0.0639-0.0639 0.0639-0.0958 0-0.1609-0.1428-0.2727-0.3328-0.3193-0.5428-0.3071 0.1476-0.5549 0.3953-0.7025 0.7024 0 0-0.0638 0.0639-0.0638 0-0.0104-0.1593 0.0192-0.3187 0.0861-0.4637s0.169-0.271 0.297-0.3664c-0.1095-0.0229-0.2226-0.0234-0.3323-0.0014-0.1098 0.0219-0.2139 0.0658-0.3063 0.1291 0 0-0.0958 0 0 0 0 0 0.0958-0.3193 0.7025-0.4151 0.0733-0.1228 0.1373-0.2509 0.1916-0.3832-0.0529-0.2746-0.1616-0.5354-0.3193-0.7663-0.2568 0.0474-0.498 0.157-0.7025 0.3193-0.0124 0.0307-0.0124 0.0651 0 0.0958v0.1277c-0.0065 0.0485-0.0288 0.0935-0.0634 0.1281-0.0347 0.0347-0.0797 0.057-0.1282 0.0635l-0.7663 0.3193c-0.1501 0.0762-0.2811 0.1854-0.3832 0.3193-0.0844 0.1095-0.1939 0.1971-0.3192 0.2554-0.0993 0.0264-0.1883 0.082-0.2555 0.1597-0.0574 0.07-0.1215 0.1342-0.1916 0.1916-0.1387 0.1102-0.2483 0.2527-0.3193 0.4151v0c-0.0033-0.0639-0.0033-0.1278 0-0.1916 0.0372-0.181 0.1259-0.3473 0.2555-0.479-0.0316 7e-3 -0.0643 7e-3 -0.0958 0-0.3753-0.0323-0.7533 1e-4 -1.1176 0.0958 0 0-0.0638 0 0 0 0-0.0958 0.1597-0.447 0.9579-0.447-0.0751-0.075-0.1649-0.1336-0.2639-0.1721-0.0989-0.0385-0.2048-0.056-0.3108-0.0514v-0.1916c0.1356-0.0442 0.2802-0.0527 0.42-0.0247 0.1398 0.0279 0.2701 0.0914 0.3782 0.1844 0.1433-0.0606 0.2934-0.1035 0.4471-0.1278 0.2404-0.2302 0.4964-0.4436 0.7663-0.6386-0.0097-0.0635-0.0097-0.128 0-0.1915-0.1737-0.2889-0.2623-0.6209-0.2555-0.9579-0.478-0.113-0.8982-0.3969-1.1814-0.7983-0.2831-0.0571-0.5478-0.1831-0.7705-0.3669-0.2228-0.1838-0.3968-0.4197-0.5067-0.6868-1.2133 0.8621-1.9796 2.3628-2.0116 2.4267h-0.0638c-0.1161-0.2147-0.1608-0.4607-0.1277-0.7025 0.353-0.8044 0.815-1.5565 1.373-2.2351-0.2555-1.2772 0.9579-1.6603 1.3729-1.6603 0.1656-0.0094 0.3312 0.0171 0.4855 0.0777 0.1543 0.0607 0.2937 0.154 0.4086 0.2735z" fill="#00467f"/>
         <path d="m65.233 18.456c0.11-0.1129 0.2578-0.1811 0.4151-0.1916-0.1764-0.0764-0.3666-0.1159-0.5588-0.1159s-0.3824 0.0395-0.5588 0.1159c0.0843-0.1265 0.1928-0.235 0.3193-0.3193-0.3482-0.0191-0.6907 0.0951-0.9579 0.3193 0.0774-0.132 0.1873-0.2419 0.3193-0.3193-0.7663 0-1.2772 0.8941-1.2772 0.8941-0.0373-0.1831-0.1376-0.3472-0.2835-0.4639-0.1458-0.1167-0.328-0.1785-0.5147-0.1747-0.447-0.0639-1.4688 0.5747-1.0856 1.4049-0.1597 0.3193-0.7664 0.8621-1.2772 1.9158v0.0638c0.4789-0.6386 1.1494-1.5007 1.82-1.9158 0.0638 0.0639 0.4789 1.0857 1.373 1.1495 0.0957 0.0639 0.5428 0.8302 1.341 0.7344-0.0022 0.3574 0.0517 0.713 0.1597 1.0537 0.2887-0.2146 0.6129-0.3767 0.9579-0.4789 0.0604-0.222 0.1461-0.4363 0.2554-0.6386 0.3247-0.0704 0.6168-0.2466 0.8306-0.5008 0.2138-0.2543 0.3372-0.5723 0.3508-0.9042 0-0.8621-0.7344-1.7561-1.5965-1.6603zm-3.8316 0.9579c-0.04 0.0063-0.0808-3e-4 -0.1168-0.0187s-0.0653-0.0477-0.0836-0.0837c-0.0183-0.0361-0.0248-0.077-0.0184-0.1169 0.0063-0.04 0.0251-0.0768 0.0537-0.1054s0.0655-0.0474 0.1054-0.0538c0.0399-0.0063 0.0808 1e-4 0.1169 0.0185 0.036 0.0183 0.0653 0.0475 0.0837 0.0835s0.025 0.0769 0.0187 0.1169c0 0.0508-0.0201 0.0995-0.0561 0.1354-0.0359 0.036-0.0846 0.0561-0.1354 0.0561zm-6.0986 21.297-0.2236 0.1277 0.2236 0.0958c0.0903 0.0519 0.1613 0.1319 0.2021 0.2279 0.0409 0.0959 0.0493 0.2025 0.024 0.3036-0.0253 0.1012-0.0829 0.1913-0.164 0.2567-0.0812 0.0654-0.1815 0.1026-0.2857 0.1059h-2.0115c-0.0953-0.0118-0.1848-0.052-0.257-0.1153-0.0722-0.0634-0.1236-0.1469-0.1477-0.2398-0.0241-0.093-0.0197-0.191 0.0126-0.2814s0.091-0.169 0.1685-0.2256l0.2236-0.1278-0.2236-0.1596c-0.4695-0.3252-1.0253-0.503-1.5965-0.5109-0.5645-0.0111-1.1198 0.1444-1.5965 0.447-0.5643 0.3779-1.2382 0.5576-1.9158 0.5109-1.0117 0.0199-1.9932-0.3454-2.7459-1.0217h-0.6067c-0.0363 0.0505-0.0843 0.0914-0.1399 0.1192-0.0557 0.0279-0.1172 0.0417-0.1794 0.0404-0.0932 0-0.1825-0.037-0.2484-0.1029-0.0658-0.0658-0.1028-0.1552-0.1028-0.2483 0-0.0932 0.037-0.1825 0.1028-0.2484 0.0659-0.0659 0.1552-0.1029 0.2484-0.1029 0.0651 0.0022 0.1286 0.0209 0.1845 0.0544 0.0558 0.0336 0.1022 0.0808 0.1348 0.1372v0.0639h0.6386v-0.7663h-0.5748l-0.0638 0.0638c-0.0396 0.0447-0.0891 0.0795-0.1445 0.1017-0.0555 0.0222-0.1153 0.0311-0.1748 0.026-0.0847 0-0.1659-0.0336-0.2258-0.0935s-0.0935-0.1411-0.0935-0.2258c0-0.0846 0.0336-0.1659 0.0935-0.2257 0.0599-0.0599 0.1411-0.0936 0.2258-0.0936 0.057-0.0091 0.1153-0.0052 0.1706 0.0114s0.1061 0.0454 0.1487 0.0844l0.0638 0.0639h0.6386l-0.0638-0.7344h-0.5748l-0.0638 0.0639c-0.0396 0.0447-0.0891 0.0795-0.1445 0.1017-0.0555 0.0221-0.1153 0.031-0.1748 0.026-0.0932 0-0.1825-0.037-0.2484-0.1029-0.0658-0.0659-0.1028-0.1552-0.1028-0.2484 0-0.0931 0.037-0.1824 0.1028-0.2483 0.0659-0.0659 0.1552-0.1029 0.2484-0.1029 0.0622-0.0013 0.1237 0.0126 0.1794 0.0404 0.0556 0.0278 0.1036 0.0687 0.1399 0.1193l0.0638 0.0638h0.5748v-0.7024h-0.6386c-0.0363 0.0505-0.0843 0.0914-0.1399 0.1193-0.0557 0.0278-0.1172 0.0416-0.1794 0.0403-0.0847 0-0.1659-0.0336-0.2258-0.0935s-0.0935-0.1411-0.0935-0.2258 0.0336-0.1659 0.0935-0.2258c0.0599-0.0598 0.1411-0.0935 0.2258-0.0935 0.057-0.0091 0.1153-0.0052 0.1706 0.0114s0.1061 0.0454 0.1487 0.0844l0.0638 0.0639h0.5748v-0.7344h-0.5748l-0.0638 0.0638c-0.0426 0.039-0.0934 0.0679-0.1487 0.0845s-0.1136 0.0204-0.1706 0.0113c-0.0932 0-0.1825-0.037-0.2484-0.1028-0.0658-0.0659-0.1028-0.1552-0.1028-0.2484s0.037-0.1825 0.1028-0.2484c0.0659-0.0658 0.1552-0.1028 0.2484-0.1028 0.0651 0.0021 0.1286 0.0208 0.1845 0.0544 0.0558 0.0335 0.1022 0.0807 0.1348 0.1372h0.6386v-0.7025h-0.5748l-0.0638 0.0639c-0.0396 0.0446-0.0891 0.0795-0.1445 0.1016-0.0555 0.0222-0.1153 0.0311-0.1748 0.0261-0.0932 0-0.1825-0.037-0.2484-0.1029-0.0658-0.0659-0.1028-0.1552-0.1028-0.2484 0-0.0931 0.037-0.1824 0.1028-0.2483 0.0659-0.0659 0.1552-0.1029 0.2484-0.1029 0.0622-0.0013 0.1237 0.0126 0.1794 0.0404 0.0556 0.0278 0.1036 0.0687 0.1399 0.1193h0.6386v-0.7025h-0.5748l-0.0638 0.0958c-0.0396 0.0447-0.0891 0.0795-0.1445 0.1017-0.0555 0.0222-0.1153 0.0311-0.1748 0.026-0.0847 0-0.1659-0.0336-0.2258-0.0935s-0.0935-0.1411-0.0935-0.2258 0.0336-0.1659 0.0935-0.2258c0.0599-0.0598 0.1411-0.0935 0.2258-0.0935 0.057-0.0091 0.1153-0.0052 0.1706 0.0114 0.0553 0.0165 0.1061 0.0454 0.1487 0.0844l0.0638 0.0639h0.479l0.4789-0.2555v6.7053l0.0958 0.0958c1.373 0.8621 2.778 0.9579 4.0232 0.2555 1.3411-0.7344 3.193-0.7664 4.2786 0.7982h-0.5108c-0.0424 0-0.083 0.0168-0.1129 0.0468-0.03 0.0299-0.0468 0.0705-0.0468 0.1129 0 0.0423 0.0168 0.0829 0.0468 0.1128 0.0299 0.03 0.0705 0.0468 0.1129 0.0468h1.5965c0.0423 0 0.0829-0.0168 0.1129-0.0468 0.0299-0.0299 0.0467-0.0705 0.0467-0.1128 0-0.0424-0.0168-0.083-0.0467-0.1129-0.03-0.03-0.0706-0.0468-0.1129-0.0468h-0.5109c1.1175-1.5965 2.9695-1.4368 4.2786-0.7982 1.1495 0.5747 2.4905 0.5108 3.9913-0.2555l0.1277-0.1277v-6.7053l0.5109 0.3193h0.447l0.0638-0.0958c0.0396-0.0447 0.0891-0.0795 0.1446-0.1017 0.0554-0.0222 0.1152-0.0311 0.1747-0.026 0.0847 0 0.1659 0.0336 0.2258 0.0935s0.0935 0.1411 0.0935 0.2258-0.0336 0.1659-0.0935 0.2258c-0.0599 0.0598-0.1411 0.0935-0.2258 0.0935-0.057 0.0091-0.1153 0.0052-0.1706-0.0114s-0.1061-0.0454-0.1487-0.0844l-0.0638-0.0639h-0.5748v0.7664h0.6386c0.0326-0.0565 0.079-0.1037 0.1349-0.1372 0.0558-0.0336 0.1193-0.0523 0.1844-0.0544 0.0932 0 0.1825 0.037 0.2484 0.1028 0.0659 0.0659 0.1029 0.1552 0.1029 0.2484s-0.037 0.1825-0.1029 0.2484c-0.0659 0.0658-0.1552 0.1028-0.2484 0.1028-0.0595 0.0051-0.1193-0.0038-0.1747-0.026-0.0555-0.0222-0.105-0.057-0.1446-0.1017l-0.0638-0.0638h-0.5748v0.7343h0.5748l0.0638-0.0638c0.0396-0.0447 0.0891-0.0795 0.1446-0.1017 0.0554-0.0222 0.1152-0.0311 0.1747-0.026 0.0974 0 0.1908 0.0386 0.2597 0.1075 0.0688 0.0689 0.1075 0.1623 0.1075 0.2597 0 0.0973-0.0387 0.1907-0.1075 0.2596-0.0689 0.0689-0.1623 0.1076-0.2597 0.1076-0.0621 0.0013-0.1237-0.0126-0.1793-0.0404-0.0557-0.0278-0.1037-0.0688-0.14-0.1193h-0.6386v0.7025h0.5748l0.0638-0.0639c0.0396-0.0447 0.0891-0.0795 0.1446-0.1017 0.0554-0.0222 0.1152-0.0311 0.1747-0.026 0.0847 0 0.1659 0.0336 0.2258 0.0935s0.0935 0.1411 0.0935 0.2258-0.0336 0.1659-0.0935 0.2258c-0.0599 0.0598-0.1411 0.0935-0.2258 0.0935-0.057 0.0091-0.1153 0.0052-0.1706-0.0114s-0.1061-0.0454-0.1487-0.0844h-0.6386v0.7344h0.5748l0.0638-0.0639c0.0396-0.0447 0.0891-0.0795 0.1446-0.1017 0.0554-0.0221 0.1152-0.0311 0.1747-0.026 0.0932 0 0.1825 0.037 0.2484 0.1029 0.0659 0.0658 0.1029 0.1552 0.1029 0.2483 0 0.0932-0.037 0.1825-0.1029 0.2484s-0.1552 0.1029-0.2484 0.1029c-0.0595 5e-3 -0.1193-0.0039-0.1747-0.0261-0.0555-0.0221-0.105-0.057-0.1446-0.1017v-0.0638h-0.6386v0.7344h0.6386v-0.0639c0.0396-0.0447 0.0891-0.0795 0.1446-0.1017 0.0554-0.0222 0.1152-0.0311 0.1747-0.026 0.0847 0 0.1659 0.0336 0.2258 0.0935s0.0935 0.1411 0.0935 0.2258-0.0336 0.1659-0.0935 0.2258-0.1411 0.0935-0.2258 0.0935c-0.0595 0.0051-0.1193-0.0039-0.1747-0.026-0.0555-0.0222-0.105-0.057-0.1446-0.1017h-0.6386v0.7024h0.6386v-0.0638c0.0396-0.0447 0.0891-0.0795 0.1446-0.1017 0.0554-0.0222 0.1152-0.0311 0.1747-0.026 0.0847 0 0.1659 0.0336 0.2258 0.0935s0.0935 0.1411 0.0935 0.2258c0 0.0846-0.0336 0.1659-0.0935 0.2257-0.0599 0.0599-0.1411 0.0936-0.2258 0.0936-0.057 0.0091-0.1153 0.0052-0.1706-0.0114s-0.1061-0.0454-0.1487-0.0844v-0.0958h-0.5428l-0.0638 0.0638c-0.7721 0.6582-1.7643 1.0003-2.7779 0.9579-0.6738 0.0537-1.3466-0.1145-1.9158-0.4789-0.4659-0.3024-1.0093-0.4633-1.5646-0.4633s-1.0988 0.1609-1.5646 0.4633z" fill="#fff"/>
         <path d="m46.139 39.785c1.0537 0.5428 1.9158 0.7024 3.3846-0.0958 0.7071-0.3755 1.5153-0.516 2.3076-0.4012s1.5274 0.479 2.0988 1.0398v0.5109c-1.2134-1.5965-3.193-1.5327-4.566-0.7663-1.1176 0.6386-2.3629 0.5747-3.6081-0.1916v-6.7053l0.3193-0.1916v6.7053z" fill="#fff"/>
         <path d="m46.394 39.529v-6.7053c1.0688 0.272 2.1992 0.159 3.193-0.3193 1.4368-0.6386 2.8737-0.4151 4.3105 0.5428v6.865c-0.7446-0.6186-1.6821-0.9574-2.6502-0.9579-0.6443-0.0027-1.2797 0.1507-1.8519 0.447-1.373 0.7025-2.0754 0.6386-3.0014 0.1277zm12.165 0.1597c1.5327 0.7982 2.3628 0.6386 3.4165 0.0958h0.0958v-6.8011l0.3193 0.1916v6.7053c-1.341 0.6386-2.5544 0.7343-3.6081 0.2235-1.373-0.7025-3.2888-0.8941-4.534 0.7024v-0.5109c0.5689-0.5537 1.2981-0.9136 2.0837-1.0282 0.7855-0.1147 1.5872 0.0217 2.2907 0.3896z" fill="#fff"/>
         <path d="m54.217 39.912v-6.833c1.4049-0.9579 2.8737-1.1814 4.2786-0.5748 0.9938 0.4783 2.1242 0.5913 3.193 0.3193v6.7053c-0.894 0.479-1.5965 0.5748-2.9695-0.1277-0.7198-0.3796-1.5371-0.5339-2.3457-0.4428-0.8086 0.0912-1.5711 0.4234-2.1883 0.9537zm7.5993-8.3018-1.82-1.373-1.8839 1.373 0.7025-2.1713-1.9158-1.3729h2.3309l0.7024-2.2351 0.6386 2.2351h2.3309l-1.9158 1.341 0.7344 2.1713zm-11.878 0-1.82-1.3411-1.8201 1.3411 0.7025-2.1713-1.9158-1.3729h2.3309l0.7025-2.2351 0.7024 2.2351h2.299l-1.9158 1.341 0.7024 2.2351zm2.2989 17.146 0.7025-2.1713-1.9158-1.4049h2.3309l0.7344-2.2351 0.7024 2.2351h2.3309l-1.9158 1.373 0.7025 2.1393-1.82-1.373-1.82 1.373" fill="#fff"/>
         <g>
          <g id="g12291">
           <path d="m38.508 15.55h0.72552v16.338h-0.72552z" fill="#00467f"/>
           <path d="m68.795 15.55h0.78075v16.201h-0.78075z" fill="#00467f"/>
           <path d="m38.508 15.55h31.017v0.91884h-31.017z" fill="#00467f"/>
          </g>
         </g>
        </g>
       </g>
      </g>
     </g>
    </g>
   </g>
   <path d="m15.26 58.518h79.517v0.44978h-79.517z" fill="#fff" stroke-width="1.0012"/>
   <g aria-label="ENGINEERING">
    <path d="m27.556 69.29h-4.207v-5.8164h4.207v1.125h-2.7148v1.0039h2.5195v1.125h-2.5195v1.4375h2.7148z" fill="#fff"/>
    <path d="m34.102 69.29h-1.4453l-2.4688-3.9922v3.9922h-1.375v-5.8164h1.793l2.1211 3.332v-3.332h1.375z" fill="#fff"/>
    <path d="m40.731 68.958q-0.39062 0.15234-1.0352 0.30469-0.64453 0.14844-1.2852 0.14844-1.4844 0-2.3242-0.80469-0.83984-0.80859-0.83984-2.2305 0-1.3555 0.84766-2.1836 0.84766-0.83203 2.3633-0.83203 0.57422 0 1.0938 0.10547 0.51953 0.10156 1.1562 0.41016v1.3633h-0.16797q-0.10938-0.08203-0.32031-0.23047-0.21094-0.15234-0.40625-0.25781-0.22656-0.125-0.53125-0.21484-0.30078-0.08984-0.64062-0.08984-0.39844 0-0.72266 0.11719-0.32422 0.11719-0.58203 0.35938-0.24609 0.23438-0.39062 0.59766-0.14062 0.35938-0.14062 0.83203 0 0.96484 0.51172 1.4766 0.51172 0.51172 1.5117 0.51172 0.08594 0 0.1875-0.0039 0.10547-0.0039 0.19141-0.01172v-1.1406h-1.1602v-1.0977h2.6836z" fill="#fff"/>
    <path d="m45.22 69.29h-3.4062v-1.0312h0.95312v-3.7539h-0.95312v-1.0312h3.4062v1.0312h-0.95312v3.7539h0.95312z" fill="#fff"/>
    <path d="m51.731 69.29h-1.4453l-2.4688-3.9922v3.9922h-1.375v-5.8164h1.793l2.1211 3.332v-3.332h1.375z" fill="#fff"/>
    <path d="m57.423 69.29h-4.207v-5.8164h4.207v1.125h-2.7148v1.0039h2.5195v1.125h-2.5195v1.4375h2.7148z" fill="#fff"/>
    <path d="m62.888 69.29h-4.207v-5.8164h4.207v1.125h-2.7148v1.0039h2.5195v1.125h-2.5195v1.4375h2.7148z" fill="#fff"/>
    <path d="m67.407 65.255q0-0.21875-0.08984-0.375t-0.30859-0.24609q-0.15234-0.0625-0.35547-0.07422-0.20312-0.01563-0.47266-0.01563h-0.54297v1.5664h0.46094q0.35938 0 0.60156-0.03516 0.24219-0.03516 0.40625-0.16016 0.15625-0.12109 0.22656-0.26562 0.07422-0.14844 0.07422-0.39453zm2.3398 4.0352h-1.832l-1.5859-2.1328h-0.69141v2.1328h-1.4922v-5.8164h2.5156q0.51562 0 0.88672 0.05859t0.69531 0.25391q0.32812 0.19531 0.51953 0.50781 0.19531 0.30859 0.19531 0.77734 0 0.64453-0.30078 1.0508-0.29688 0.40625-0.85156 0.67578z" fill="#fff"/>
    <path d="m73.548 69.29h-3.4062v-1.0312h0.95312v-3.7539h-0.95312v-1.0312h3.4062v1.0312h-0.95312v3.7539h0.95312z" fill="#fff"/>
    <path d="m80.059 69.29h-1.4453l-2.4688-3.9922v3.9922h-1.375v-5.8164h1.793l2.1211 3.332v-3.332h1.375z" fill="#fff"/>
    <path d="m86.688 68.958q-0.39062 0.15234-1.0352 0.30469-0.64453 0.14844-1.2852 0.14844-1.4844 0-2.3242-0.80469-0.83984-0.80859-0.83984-2.2305 0-1.3555 0.84766-2.1836 0.84766-0.83203 2.3633-0.83203 0.57422 0 1.0938 0.10547 0.51953 0.10156 1.1562 0.41016v1.3633h-0.16797q-0.10938-0.08203-0.32031-0.23047-0.21094-0.15234-0.40625-0.25781-0.22656-0.125-0.53125-0.21484-0.30078-0.08984-0.64062-0.08984-0.39844 0-0.72266 0.11719-0.32422 0.11719-0.58203 0.35938-0.24609 0.23438-0.39062 0.59766-0.14062 0.35938-0.14062 0.83203 0 0.96484 0.51172 1.4766 0.51172 0.51172 1.5117 0.51172 0.08594 0 0.1875-0.0039 0.10547-0.0039 0.19141-0.01172v-1.1406h-1.1602v-1.0977h2.6836z" fill="#fff"/>
   </g>
  </g>
 </g>
</svg>
