<?xml version="1.0" encoding="utf-8"?>
<!-- Generator: Adobe Illustrator 23.0.1, SVG Export Plug-In . SVG Version: 6.00 Build 0)  -->
<svg version="1.1" id="Capa_1" xmlns="http://www.w3.org/2000/svg" xmlns:xlink="http://www.w3.org/1999/xlink" x="0px"
     y="0px"
     viewBox="0 0 512 512" style="enable-background:new 0 0 512 512;" xml:space="preserve">
<style type="text/css">
	.st0{fill:#FFFFFF;}
</style>
    <g>
	<path class="st0" d="M512,145v-34c0-16.3-14.2-30-31-30H367c-16.5,0-30,13.5-30,30v34H512z"/>
        <path class="st0" d="M337,175v226c0,16.5,13.5,30,30,30h114c16.8,0,31-13.7,31-30V175H337z M428.4,366.4c-7.4,2.2-15.9-1.4-18.7-10
		c-2.2-7.5,1.5-16,10-18.7c8.2-2.5,17.2,2.4,19.1,11.4C440.1,356.3,436.3,363.7,428.4,366.4L428.4,366.4z M428.4,302.4
		c-7.4,2.2-15.9-1.4-18.7-10c-2.2-7.5,1.5-16,10-18.7c8.2-2.5,17.2,2.4,19.1,11.4C440.1,292.3,436.3,299.7,428.4,302.4L428.4,302.4z
		"/>
        <path class="st0" d="M273,81H30C13.5,81,0,94.5,0,111v203c0,16.5,13.5,30,30,30h243c16.5,0,30-13.5,30-30V111
		C303,94.5,289.5,81,273,81z"/>
        <path class="st0"
              d="M232,401h-33v-27h-94v27H72c-8.3,0-15,6.7-15,15s6.7,15,15,15h160c8.3,0,15-6.7,15-15S240.3,401,232,401z"/>
</g>
</svg>
